<?xml version="1.0" encoding="UTF-8"?>
<svg id="Calque_2" data-name="Calque 2" xmlns="http://www.w3.org/2000/svg" viewBox="0 0 369.71 91.31">
  <defs>
    <style>
      .cls-1 {
        fill: #d8d6ba;
      }
    </style>
  </defs>
  <g id="Maquette">
    <g>
      <path class="cls-1" d="m51.63,68.96s0,0,0-.01c0,0,0,0-.01,0l.02.02Z"/>
      <path class="cls-1" d="m60.16,75.6s0-.01,0-.02c0,0-.01,0-.02,0l.02.02Z"/>
      <path class="cls-1" d="m336.48,40.19s0,0,0,.01h.01-.02Z"/>
      <path class="cls-1" d="m121.67,14.72s.01,0,.02,0c0,0,0-.01,0-.02l-.02.02Z"/>
      <path class="cls-1" d="m342.5,61.69s0,0,0,0c0,0,.01,0,.01,0,0,0,0,0-.01,0Z"/>
      <path class="cls-1" d="m341.51,61.6c-.06.08-.18.14-.27.15-1.05.14-2.15-.3-3.18.41-.34.24-.98.04-1.48.04-.04-.07-.07-.14-.11-.21.33-.23.64-.59,1-.67.57-.13,1.18-.05,1.77-.09.15,0,.29-.11.44-.17-.11-.08-.22-.16-.32-.25-.07-.07-.1-.18-.15-.29.34-.08.86-.08.9-.22.12-.47.44-.3.69-.33.19-.03.55.01.56-.05.15-.57.68-.37,1.03-.53v-.97c-.65.86-1.43.56-2.35.59.21-.3.35-.49.53-.74-.3-.04-.57-.08-.84-.12v-.68c.24-.24.39-.39.48-.48-.38-.25-.84-.38-.87-.59-.11-.65.57-.29.87-.55v-.89c.41,0,1.05.12,1.11-.02.25-.55.74-.35,1.13-.5-.24-.9-1.18-.83-1.75-1.11-.63-.32-1.56-.07-2.41-.07.03-.39.04-.65.06-.91.35-.03.64-.06.93-.09.01-.38-.23-.84.38-.88-.04-.12-.06-.29-.14-.33-.13-.06-.32-.01-.46-.06-.1-.03-.2-.15-.23-.25-.02-.05.12-.21.19-.21.66-.06,1.16-.73,1.9-.5.07.02.15-.03.23-.05-.03-.07-.05-.13-.08-.2-.9-.31-2.16.31-2.82-.98.73-.04,1.32-.07,1.92-.1v-.85c-.13.01-.33,0-.34.03-.1.57-.54.37-.87.38-.47.02-.94,0-1.42,0-.6,0-1.2,0-1.84,0,.02-.3.03-.51.05-.84.69,0,1.36.07,2.01-.02.5-.07.98-.32,1.46-.52.04-.02,0-.21,0-.27-.57-.39-1.28.21-1.81-.4-.38-.43-1.06-.65-.81-1.55.18.13.31.22.44.31.1.06.26.19.29.17.28-.25.54-.53.71-.7.33.11.56.23.81.26.37.04.69-.3.94-.34.58-.11.91-.84,1.58-.61.03.01.1-.08.28-.24-.31-.04-.48-.07-.65-.07-.91,0-1.8.07-2.71.27-.98.21-2.03.07-3.05.09,0,.28-.08.45-.42.43-.42-.03-.85,0-1.33,0-.01-.27-.02-.53-.04-.78-.81-.01-.37-.53-.4-.95.38,0,.71.02,1.04,0,.21-.01.42-.06.61-.13.25-.09.49-.28.74-.3.6-.05,1.22-.03,1.82-.04.64,0,1.28,0,1.92,0,.03-.34.05-.55.08-.82-.56,0-1.07,0-1.58,0-.59-.01-1.04-.39-1.2-.97-.78,0-1.56,0-2.33,0-.1,0-.2-.12-.3-.19.11-.08.21-.2.33-.22.33-.05.66-.05.99-.08.14-.55-.25-.43-.51-.45-.28-.02-.57-.04-.85-.06,0-.06-.01-.12-.02-.19.45-.24.9-.48,1.43-.76,0-.15-.02-.42-.04-.73-.26,0-.48,0-.69,0-.21-.01-.57.03-.62-.07-.22-.48-.59-.24-.91-.27-.13-.01-.27,0-.36,0-.22-.32-.4-.58-.67-.98.93.16,1.08-.31,1.03-.94.41-.02.79.01,1.15-.07.34-.07.66-.26,1.07-.42.12-.12.35-.28.5-.5.28-.41.55-.38.89-.06.17.16.77.18.82.08.28-.54.39-.42.64.02.06.11.46.04.7.05,0-.11.03-.3,0-.32-.38-.15-.57-.67-1.12-.54-.36.08-.75.06-1.12,0-.28-.04-.55-.19-.8-.34-.22-.13-.32-.19-.48.11-.37.72-.62.81-1.41.61-.02-.26-.03-.53-.05-.85-.25.04-.54,0-.61.11-.46.73-1.15.17-1.71.32-.02,0-.1-.24-.14-.37.39-.14.77-.39,1.17-.41.55-.03.66-.51.99-.75.02-.02-.03-.13-.06-.26h-2.18v-1.23c-.56-.02-1.12-.02-1.68-.05-.18-.01-.37-.08-.55-.15-.24-.09-.46-.22-.7-.29-.22-.06-.46-.06-.83-.09.12-.31.19-.74.32-.76.3-.05.64.1,1.09.2.13-.16.36-.44.59-.72-.48-.04-.97-.08-1.45-.12,0-.06-.02-.13-.03-.19.3-.06.6-.12.94-.19v-.83c-.38,0-.73.01-1.08,0-.11,0-.21-.11-.32-.17.08-.1.16-.21.25-.3.08-.08.17-.15.26-.22-.09-.05-.18-.11-.27-.15-.07-.03-.14-.04-.26-.07.03-.44.06-.86.08-1.27.19-.03.3-.05.42-.06,1.66-.2,3.39.36,5.01-.46.47-.24,1.04-.28,1.56-.43.06-.02.15-.14.14-.2,0-.07-.11-.17-.18-.17-.39-.01-.87-.31-1.09.32-.02.07-.23.09-.36.11-1.31.24-2.67-.33-3.98.31-.31.15-.88.2-1.23-.25-.22-.28-.49-.52-.73-.78-.17-.18-.34-.37-.46-.51.84-.28,1.56-.52,2.29-.77-.02-.09-.03-.18-.05-.28-.45.04-.91.08-1.36.14-.23.03-.47.13-.69.11-.27-.03-.52-.18-.79-.23-.27-.05-.55,0-.83-.04-.1-.01-.19-.14-.28-.21.1-.07.19-.18.3-.2.25-.03.52.01.76-.04.1-.02.24-.32.22-.34-.22-.21-.49-.39-.72-.59-.11-.1-.19-.25-.36-.48.64,0,1.07-.02,1.51,0,.54.03.66-.36.91-.77-.5-.04-.89-.06-1.38-.1.09-.18.13-.31.21-.42.08-.12.18-.23.27-.35-.15-.05-.3-.14-.45-.15-.41-.02-.82,0-1.23,0-.06-.28-.11-.52-.17-.79-.49,0-1.04-.16-1.37.04-.43.27-.59.24-1.06.02-.53-.26-.92-.61-1.33-.98-.23.36-.98.62-1.41.38-.28-.15-.46-.5-.76-.87.75,0,1.28,0,1.81,0,.4,0,.91-.29,1.1.37,0,.03.14.05.22.05.49,0,.98,0,1.46,0l.12-.15c-.31-.33-.62-.66-.87-.94.39-.22.67-.37.95-.53.15-.14.37-.14.58-.2.07-.02.09-.2.13-.3-.4.03-.79.04-1.19.1-.15.02-.28.24-.42.24-.83.02-1.66.02-2.48,0-.12,0-.24-.07-.35-.13-.18-.09-.35-.27-.54-.29-.59-.04-1.18-.03-1.77-.02-.34,0-.48-.1-.36-.34,1.17-.18,2.26-.34,3.35-.53.12-.02.22-.19.33-.29-1.21-.13-2.29-.13-3.37-.12-.11,0-.23.1-.33.16-.1.06-.19.14-.29.22-.06-.11-.14-.22-.16-.35-.03-.16-.02-.33-.03-.58h3.64c.04-.32.07-.57.1-.84,1.2-.19,2.44.18,3.56-.4.13-.06.24-.15.36-.23-.11-.08-.21-.2-.33-.23-.19-.05-.4-.08-.58-.05-1.08.2-2.21-.33-3.28.41-.33.22-1.22.39-1.65-.34-.1-.17-.27-.31-.43-.42-.09-.06-.34-.05-.34-.03-.16.69-.65.32-1.14.38.24-.44.44-.78.63-1.13-.05-.06-.11-.12-.16-.18-.33.08-.65.16-.98.23-.35-.09-.72-.15-1.08-.12-.24.02-.45.23-.69.28-.29.06-.61-.09-.79.33-.04.1-.66.12-.74,0-.37-.59-.92-.29-1.39-.37-.4-.07-.98-.08-1.14-.34-.4-.63-.95-.38-1.45-.45-.12-.02-.24,0-.35-.02-.1-.03-.18-.1-.27-.15-.17-.11-.33-.3-.5-.31-.91-.02-1.86-.17-2.7.07-.61.17-1.03.03-1.58-.02-1.54-.14-3.11-.05-4.67-.04-.12,0-.28.04-.35.12-.38.45-.79.46-1.12.04-.15.1-.29.27-.44.28-.73.04-1.46.04-2.18.02-.1,0-.2-.16-.3-.25.09-.07.18-.17.28-.21.57-.2,1.15-.38,1.72-.58.07-.02.11-.11.17-.15.15-.08.31-.21.47-.22.65-.03,1.3-.01,1.95-.03.39-.01.7-.4.64-.8-.96,0-1.92,0-2.89,0-.47,0-1-.2-1.2.48-.28-.34-.52-.62-.8-.95h-.71c-.12.17-.22.31-.32.45-.09-.1-.16-.25-.28-.29-.2-.08-.43-.12-.64-.14-.06,0-.12.15-.18.23.15.1.29.19.44.29.02.01.03.03.05.05v.72c-.89,0-1.76,0-2.62,0-.17,0-.45.03-.48.11-.22.65-.66.22-1,.31-.03-.43.05-.39.37-.99.25-.47.56-.26.84-.27.32,0,.64.07.96.15.15.04.37.28.41.26.24-.21.45-.47.77-.84-.44-.02-.67-.04-.91-.05-.91,0-1.81.01-2.72-.02-.19,0-.37-.24-.57-.3-.14-.04-.32,0-.46.06-.1.04-.16.18-.24.27-.27.36-.72.65-.52,1.25.14,0,.29,0,.41.03.28.08.68-.22.83.26-.28.07-.55.14-.83.2-.95.21-2.04-.42-2.89.45-.03.03-.11.01-.17.01-.35,0-.7,0-1.05,0l-.12-.16c.33-.34.66-.67,1.02-1.05-.6-.08-1.23-.3-1.61.32-.27.44-.63.41-1.02.44-.17.01-.47.03-.49.09-.14.61-.56.29-.93.34v-.88c-.91-.18-1.58.11-2.02.89-.48-.83-.63-.92-1.61-.93-.26,0-.51.02-.77,0-.35-.02-.54.12-.56.47-1.4,0-2.79,0-4.19.01-.22,0-.45.09-.66.17-.21.08-.39.25-.6.29-.29.06-.59,0-.88.04-.12.01-.23.13-.34.2.12.06.24.18.36.18.71.02,1.42.07,2.13.01.36-.03.87.31,1.13-.29.02-.04.65.26,1,.3.43.05.87-.01,1.3-.01.25,0,.5.04.81.06-.05.19-.06.4-.13.42-.46.15-.93.35-1.41.36-1.93.04-3.87,0-5.8,0-.09,0-.17-.03-.38-.08.74-.44.24-.78.05-1.14l-.57.33s.03.08.04.13h-1.63c-.06.28-.12.51-.19.85-.35-.33-.59-.59-.87-.8-.07-.05-.34.01-.34.05-.07.43-.4.28-.65.31-.21.02-.56-.03-.61.07-.21.41-.57.3-.87.3-2.23.02-4.46.02-6.69.04-.19,0-.38.09-.56.17-.16.07-.31.26-.47.27-.98.04-1.97.04-2.96.05-.37,0-.74-.01-.8-.52-.31.11-.73-.17-.86.36-.01.04-.55-.02-.83-.08-.15-.03-.28-.25-.42-.25-1.66,0-3.31,0-4.97.03-.13,0-.28.09-.38.18-.49.45-.95.96-1.75.63-.04-.25-.08-.52-.15-.95-.35.28-.7.46-.88.75-.24.39-.55.36-.85.25-.18-.06-.3-.31-.42-.5-.06-.1-.05-.25-.08-.38-.15,0-.27,0-.39-.02-.81-.15-1.7.31-2.46-.31-.04-.03-.15.01-.22.04-.22.09-.45.16-.66.28-.12.07-.2.22-.3.33.03.05.06.1.09.15h2.64c0,.43-.51.91-.89.92-2.9.03-5.8.05-8.69.09-.3,0-.6.17-.91.21-.35.05-.86.19-1.02.02-.44-.45-.94-.29-1.41-.3-1.46-.03-2.92.01-4.38,0-.82,0-1.6.2-2.4.27-1.04.09-2.1-.18-3.33-.32.21-.25.35-.43.5-.6.04.02.08.04.12.06v-1.2h3.54c-.02-.32-.03-.58-.05-.95-.3.06-.72.05-.76.17-.13.44-.48.31-.72.31-.13,0-.26-.24-.46-.43-.12,0-.48-.05-.52.04-.34.76-.97.34-1.48.4-.49.06-1.08-.22-1.38.45-.02.04-.14.05-.22.05-1.09.11-2.18.22-3.28.33-.18.02-.36,0-.53.03-.14.03-.27.14-.41.21.13.07.27.2.4.2.99.03,1.97.02,2.96.03.18,0,.48-.03.51.04.22.59.7.39,1.11.44.1.01.19.14.28.22-.09.08-.17.19-.28.23-.12.05-.28.07-.41.04-.87-.21-1.24.53-1.78.95,0,0,.12.27.2.28.26.05.43.16.66.32.28.21,1.14.19,1.18.07.16-.47.48-.33.76-.34.49-.01.99.01,1.48.03.13,0,.37.01.39.06.14.6.61.34.95.38.33.03.66,0,.99,0,.02.08.05.16.07.24-.17.08-.34.22-.5.22-1.73,0-3.47-.05-5.2-.03-3.77.06-7.56-.12-11.32.39-.35.05-.71.02-1.06.03-.11,0-.31.03-.32.07-.11.51-.51.35-.8.35-2.5.01-5.01,0-7.51,0-.18,0-.36,0-.52-.06-.07-.03-.14-.27-.12-.29.23-.16.47-.39.72-.4.83-.03,1.68-.3,2.47.17.07.04.21-.02.32-.05.2-.06.39-.17.58-.18.53-.02,1.06.02,1.59,0,.16,0,.31-.13.47-.2-.16-.09-.31-.27-.47-.27-3.11,0-6.23,0-9.34.02-.15,0-.29.06-.43.11-.21.08-.42.25-.63.26-1.38.04-2.76.01-4.14.08-1.29.07-2.58.23-3.87.34-.45.04-.91,0-1.36.02-.11,0-.3.02-.32.07-.15.57-.58.3-.94.35-.03-.42-.06-.81-.08-1.18-.07-.03-.1-.06-.14-.06-1.91,0-3.83,0-5.74,0-.12,0-.23.1-.34.15-.17.08-.34.22-.51.24-.35.04-.71.02-1.06.02-.94,0-1.88,0-2.88,0,.04-.18.04-.32.1-.42.07-.13.2-.23.3-.34-.17-.05-.34-.16-.52-.16-.85,0-1.7.01-2.54.03-.13,0-.36,0-.39.07-.17.43-.54.34-.85.34-2.37,0-4.73,0-7.1-.02-.22,0-.44-.27-.67-.3-.29-.04-.61,0-.9.06-.18.04-.33.25-.5.26-.59.04-1.18.03-1.77.02-.13,0-.26-.1-.38-.17-.16-.09-.31-.26-.47-.27-1.14-.02-2.29,0-3.43,0-.24,0-.54-.1-.58.3-.16-.04-.31-.08-.47-.11-.15-.03-.32-.11-.46-.07-.19.05-.35.27-.53.28-.81.04-1.61.02-2.42.02-2.66,0-5.32,0-7.99.03-.26,0-.52.35-.78.36-.26,0-.52-.31-.79-.33-.38-.03-.87-.22-1.1.35-.02.05-.22.04-.34.04-.93,0-1.85-.01-2.78,0-.47,0-1.06-.11-1.39.12-.55.38-1.06.2-1.59.23-.07-.25-.13-.46-.18-.64-.25.17-.46.31-.71.48-.09.86-.35,1.09-1.28,1.13-.17,0-.34.04-.51.06.04.77-.01.84-.77.88-.51.03-1.02,0-1.52-.02-.11,0-.3-.05-.32-.11-.13-.44-.44-.32-.76-.32-.21,0-.43-.1-.63-.19-.12-.05-.21-.17-.32-.26-.06.14-.14.28-.18.43-.03.13-.02.27-.03.46-.47,0-.92.02-1.37,0-.36-.02-.49-.15-.15-.45.09-.08.09-.26.15-.43h-1.49c.27.32.43.51.58.7-.59.33-1.06.28-1.47-.1-.11-.1-.32-.13-.49-.13-.69-.02-1.38,0-2.06-.03-.15,0-.29-.11-.43-.18-.18-.1-.36-.33-.51-.3-1.07.16-2.24-.39-3.22.43-.04.03-.12.01-.17.01-.61,0-1.22.03-1.83.02-.17,0-.37-.09-.49-.21-.24-.26-1.23-.3-1.51-.07-.19.16-.45.25-.72.39-.21-1.38-.35-1.49-1.67-1.51-.35,0-.71-.03-1.05-.1-.26-.05-.51-.19-.77-.3-.06.06-.11.12-.17.18.13.36.27.73.43,1.16-1.03,0-1.99,0-2.95,0-.2,0-.42.05-.6.14-.47.24-.89.65-1.37.74-.72.13-1.47.05-2.21.06,0-.15-.02-.39.03-.41.67-.25.17-.62.24-.97-.27.16-.44.26-.6.36-.3-.62-.58-.28-.89,0-.09.07-.27.06-.4.06-2.7.02-5.4.04-8.1.03-.39,0-.97.33-1.13-.41,0-.03-.14-.05-.22-.05-.37,0-.73,0-1.15,0,.02.34.03.61.05.95.34,0,.63-.03.92.01.17.02.32.16.47.25-.15.08-.3.18-.46.22-.48.11-1.05-.25-1.47.26-.03.03-.19.02-.21-.02-.25-.44-.66-.24-1.01-.26-.25-.01-.47.07-.62-.27-.06-.12-.61-.2-.71-.09-.69.77-.78.82-1.55.46-.28.1-.47.22-.67.22-1.06.02-2.13-.02-3.19,0-.57.01-1.27-.09-1.66.2-.45.34-.58.22-.74,0-.34.1-.59.24-.85.25-.42,0-.84-.06-1.25-.14-.19-.04-.36-.27-.54-.27-2.52-.01-5.05,0-7.57.02-.14,0-.34.04-.41.14-.31.46-.59.36-.9,0-.06-.07-.21-.14-.28-.12-.08.02-.16.16-.18.25-.03.18,0,.37,0,.48.32.29.9-.1.95.59-.32.01-.59.04-.87.04-2.23.01-4.46.05-6.68,0-.61-.01-.67.42-.94.75.33.07.65.02.95.08.47.09,1.12-.33,1.38.43.01.03.15.04.22.04.53,0,1.06-.03,1.59-.02,1.18.01,2.37.03,3.55.06.1,0,.25.05.29.12.03.07-.04.21-.09.29-.07.11-.18.2-.27.3.15.06.3.14.46.16.19.03.39.03.59.03,3.43,0,6.86.02,10.29.03.21,0,.49-.04.62.07.23.18.35.2.61.05.35-.2.86.22.82.69-.72,0-1.45,0-2.17,0-2.78,0-5.56.02-8.34.02-.37,0-.63.04-.71.5-.03.16-.32.32-.53.39-.21.08-.62-.03-.67.08-.29.6-.82.37-1.24.39-.69.04-1.38.02-2.06.03-.15,0-.3.05-.45.08-.04.04-.09.08-.13.12.91.22.76.55.18,1,.52.08.98.08,1.44.08.41,0,.81.02.79-.58,0-.09.12-.18.19-.26.08.09.2.17.24.27.17.51.55.75,1.02.53.35-.17.63-.62.89.07.01.03.11.02.17.03.58.06,1.25-.28,1.7.39.02.03.11,0,.17.01.71.09.51-.53.67-.88h.67c.28.34.51.61.76.9.19-.17.34-.3.41-.36.41.24.74.42,1.07.61,0,.05-.01.1-.02.15-.26.03-.51.09-.77.09-2.11,0-4.22-.02-6.33-.02-.24,0-.57-.07-.69.05-.53.54-1.17.26-1.75.32-.47.05-.95-.02-1.41.03-.2.02-.38.23-.59.29-.13.04-.31-.02-.45-.06-.13-.03-.32-.18-.38-.14-.17.13-.29.33-.43.5-.34.43-.69.81-1.31.77-.33-.02-.67,0-1,.01-.11,0-.31.03-.32.08-.15.64-.61.43-1,.4.06.41.43.27.67.36.1.04.17.16.26.24-.09.08-.17.21-.27.23-.23.04-.48,0-.7.04-.15.03-.29.14-.44.22.14.06.28.16.43.17,1.08.03,2.17.04,3.25.08.13,0,.27.14.4.21-.14.07-.27.21-.41.21-.59.02-1.17.01-1.78.01-.04.31-.06.54-.1.85h-1.83v.96c-.47,0-.9,0-1.32,0-.14,0-.29.06-.43.11-.21.09-.4.26-.61.29-.43.05-.87.02-1.3.01-.13,0-.26-.04-.38-.09-.27-.1-.53-.31-.8-.32-1.02-.05-2.05-.04-3.07-.04-.47,0-.93,0-1.45,0,.02.31.04.53.06.79.48.02.91.03,1.34.07.13.01.26.1.39.16.17.08.34.23.51.24,1.28.04,2.56.03,3.84.07.41.01.82.14,1.33.24.08-.02.3-.09.52-.15.1.54.54.36.84.37,1.3.02,2.6,0,3.9.02.24,0,.48.13.72.21-.25.09-.5.25-.75.25-1.48.01-2.96-.04-4.43-.01-.62.01-1.33-.26-1.82.4-.04.05-.15.05-.22.07-.56.16-1.13.31-1.71.48v.82c-.58.22-1.15.43-1.78.66.08.33.22.64.72.64.65,0,1.3,0,1.94.04.13,0,.26.15.39.22-.12.06-.25.18-.38.18-.6.02-1.21,0-1.81,0,.04.07.07.14.11.21-.25.39-.5.78-.68,1.07-.34-.14-.54-.23-.75-.3-.15-.05-.34-.02-.45-.11-.61-.47-.77-.47-1.47-.03-.07.04-.24-.1-.36-.11-.3-.03-.74-.17-.89-.02-.28.28-.39.35-.59-.03-.04-.08-.2-.14-.29-.13-.42.05-.83.14-1.34.23-.32-.4-.43-.4-1.03.11-.09.08-.24.07-.37.1-.05.33.04.52.43.47.25-.03.51-.03.77-.02.46.02.93.05,1.39.07v.24h-2.44c-.16.4-.28.66-.39.93-.09-.25-.17-.5-.27-.75-.01-.04-.04-.06-.1-.15-.16.04-.47.03-.51.13-.22.56-.66.36-1.04.36-.65,0-1.3.02-1.95,0-.35-.01-.44.14-.41.44.3.02.61.04,1.09.08-.22.27-.36.45-.46.58.16.2.32.39.54.64.38,0,.85,0,1.32,0,.22,0,.58-.03.62.07.29.65.84.35,1.27.39.67.06,1.34-.03,2.01.03.46.04,1.08-.31,1.33.43.02.05.22.04.33.07.14.04.27.09.4.13,0,.06,0,.11-.01.17-1.25.33-2.57,0-3.83.33.28.11.55.17.83.17,1.77.02,3.55.01,5.32.04.15,0,.3.14.44.22-.15.07-.3.17-.46.21-.3.06-.61.06-.91.14-.29.08-.56.31-.85.34-.47.06-.94,0-1.42.02-.12,0-.23.1-.34.15.06.11.11.22.17.33.05.09.1.19.15.28-.11.05-.24.17-.34.15-.51-.1-1.15.32-1.51-.38-.03-.05-.19-.07-.28-.05-.4.08-.79.17-1.12.24-.33-.09-.64-.23-.95-.25-.57-.04-1.14,0-1.71-.02-.18,0-.45.03-.51-.07-.42-.63-1-.28-1.55-.36v.84c1.4.15,2.8-.18,4.14.39.33.14.79.06,1.17.01.64-.08,1.03.24,1.41.81-.25.05-.46.06-.63.15-.17.09-.3.25-.45.38-.53-.5-1.46-.5-2.16-.06-.17.1-.59.12-.65.02-.39-.6-.91-.25-1.56-.32.15.37.2.67.36.88.37.47,1.01.5,1.56.2.19-.11.62-.15.69-.05.28.41.66.27,1.01.27.67,0,1.34-.01,2.01,0,.09,0,.18.14.27.21-.09.08-.16.19-.27.23-.13.04-.27.02-.41.02-1.36,0-2.72-.03-4.08,0-.3,0-.6.16-.9.24-.2-.06-.43-.15-.68-.22-1.05-.27-1.93.49-2.94.48-.07,0-.14.14-.21.21.08.07.15.16.24.19.13.04.27.02.41.02,1.36,0,2.72-.03,4.08.01.57.02,1.22-.27,1.68.33.02.03.24-.02.29-.09.31-.41.62-.2.97-.07.22.09.6.21.69.12.61-.63.7.18,1.04.32-.23.12-.44.18-.66.19-.63.01-1.27.06-1.89-.01-.85-.11-1.81.38-2.56-.4-.01-.01-.04,0-.06,0-.8,0-1.61,0-2.43,0-.01.11-.05.24-.03.26.35.19.46.73,1.02.65.4-.06.83-.03,1.24.03.19.02.38.18.54.31.23.18.41.47.66.58.55.23.85-.17,1.04-.6.21-.48.71-.34.79-.18.24.48.61.33.95.34.61.02,1.21,0,1.86,0-.05.72.31.86.84.83.16,0,.33.16.5.25-.18.08-.35.2-.53.22-.47.04-.94.02-1.42.03-.49,0-1.28-.18-1.42.04-.5.78-.68-.2-1-.09-.04.01-.08,0-.12,0-.43.02-.87.03-1.3.05-.13,0-.37.02-.38.08-.16.58-.63.35-.97.38-.43.04-.87,0-1.3,0-.15,0-.41.01-.44.09-.25.6-.51.31-.7.09-.22.11-.51.29-.53.27-.44-.58-.86-.71-1.28.01-.54-.11-1.17.21-1.65-.32-.06-.07-.3-.04-.43,0-.23.08-.45.29-.68.3-.85.04-1.7,0-2.54.02-.25,0-.5.09-.9.17.53.26.88.44,1.24.6.04.02.11-.02.16-.04.25-.08.51-.22.76-.24.81-.04,1.62-.04,2.42-.05.26,0,.62-.08.75.05.48.49,1.05.26,1.58.33.12.01.35.06.35.11.05.43.37.33.63.34.33.02.67-.02,1,.02.3.04.6.15.98.25.15-.29.64-.44.87-.11.23.33.45.31.71.33.51.04,1.01.05,1.57.08.03.57.18,1.02.86.82.11-.15.22-.29.33-.43.1.13.2.26.31.39.05.05.14.06.19.12.38.42.9.27,1.37.34.17.02.33.13.5.2-.17.08-.34.23-.5.23-.97.01-1.93-.02-2.9,0-.29,0-.57.1-.86.15,0,.08.01.17.02.25,1.41.22,2.85.02,4.38.18-.12.39-.23.72-.37,1.14.39.04.8.08,1.22.11.33.02.51.15.48.51-.01.13.03.26.06.41.33,0,.63-.02.92.01.12.01.23.14.34.21-.1.08-.2.2-.31.24-.38.12-.76.21-1.15.29-.09.02-.2,0-.28-.04-.89-.46-1.8-.13-2.71-.18-.03.3-.05.53-.08.8-.64,0-1.25-.01-1.86,0-.12,0-.23.13-.35.2.12.07.23.16.36.19.17.04.35.02.53.02,1.48.02,2.96.04,4.43.07.17,0,.34.05.5.1.23.08.46.27.69.27.61-.01.81.26.73.82-.02.15-.03.31-.05.49-.58.03-1.14.06-1.72.09v.9h7.57c-.25.78-.93.26-1.28.61-.02.19-.05.42-.09.71-.36,0-.69-.02-1.02.01-.09,0-.17.15-.25.24.08.06.16.15.25.18.09.03.2,0,.29.02.58.11,1.3-.36,1.72.43.02.04.15.02.23.03.94,0,1.88.01,2.82.02-.03.34.15.46.48.46.61,0,1.23-.02,1.83.05.3.04.58.28.87.43-.06.11-.13.32-.19.32-.51-.02-1.1.29-1.45-.39-.26.32-.49.6-.75.93-.3,0-.67-.02-1.05,0-.2.02-.44.07-.59.19-.42.35-1.06.34-1.42-.06-.06-.06-.16-.12-.24-.12-1.14-.01-2.29-.02-3.43,0-.1,0-.2.13-.29.2.09.07.18.19.28.21,1.34.14,2.68.27,4.02.39.51.04,1.02.02,1.54.04.13,0,.26.04.38.09.27.1.52.26.79.32.3.07.62.05,1.09.08-.19.3-.32.51-.52.82.63.04,1.21.12,1.78.11.34,0,.46.11.43.42.69.13,1.38.26,2.08.4.07.01.12.08.19.11.2.1.4.25.62.29.28.06.59.03.88.08.09.02.24.21.22.25-.12.22-.25.53-.45.59-.71.22-1.44.38-2.18.52-.34.07-.71.03-1.06.06-.09,0-.17.08-.25.13.34.15.66.16.98.21.14.02.27.09.39.15.16.09.31.27.47.28.45.05.9.03,1.36.04.13,0,.36.02.37.08.13.47.51.34.82.36.37.02.75,0,1.12.02.12,0,.32.09.32.14.03.43.35.27.57.32.25.05.51.1.75.18.17.06.32.25.48.25,1.12.03,2.25-.01,3.37.07.5.04.98.3,1.47.47,0,.07-.01.15-.02.22-.25.04-.49.09-.74.11-.53.04-1.19-.12-1.55.14-.39.28-.74.3-1.12.41-.14.18-.33.3-.47.46-.06.07-.06.19-.08.3.51.01,1.01.02,1.52.04.1,0,.22.06.29.13.03.03-.01.19-.07.25-.16.17-.35.32-.6.53-.3.02-.71.04-1.15.07.02.3.04.54.06.91,1.15,0,2.25-.01,3.35.01.23,0,.45.2.69.24.44.08.59.74,1.15.55.04-.01.17.07.17.11.05.43.38.31.63.32.35.01.71,0,1,0,.27.36.49.64.73.96,1.43,0,2.9,0,4.38,0,.09,0,.27-.02.27-.05.13-.58.61-.32.94-.42.21-.06.38-.27.58-.3.43-.05.86-.04,1.29,0,.18.02.33.27.5.29.47.04.95.02,1.42.02.1,0,.23.01.28-.05.25-.27.47-.57.7-.85,0,.06,0,.12.01.18.4.08.81.16,1.21.23.31.05.63-.02.83.39.12.24.51.54.73.5.51-.07,1.19-.2,1.42-.56.25-.38.48-.32.74-.33.63-.01,1.26.02,1.89.04.14,0,.33,0,.4.07.51.58,1.16.3,1.76.34.1,0,.24-.09.31-.18.27-.3.46-.24.78-.01.22.15.72.21.9.06.46-.36,1.49-.42,1.94-.05.15.13.45.08.68.11.08-.61.56-.32.87-.38.39-.08.89.19,1.12-.38,0,0,.22.04.31.1.11.08.2.2.3.3.21.19.24.32-.06.46-.13.06-.2.25-.36.45,1.12,0,2.06,0,3,0,.09,0,.18-.14.27-.21-.1-.06-.2-.18-.31-.18-.49-.03-.99-.02-1.48-.06-.14-.01-.27-.14-.41-.21.13-.08.26-.22.4-.23.77-.02,1.54,0,2.3-.03.31-.01.8.23.86-.39,0-.02.1-.05.16-.05.84,0,1.68,0,2.69,0-.51.69.11.92.36,1.27.08.11.66.04.68-.04.12-.44.44-.32.72-.33.29,0,.59.05.88.03.13,0,.25-.12.37-.19-.08-.09-.18-.18-.22-.28-.06-.13-.07-.28-.1-.42.67,0,1.49-.22,1.96.09.5.33.93.28,1.39.3.37,0,.84.18,1.08-.36.03-.06.48.03.73.1.19.05.36.26.55.27.91.04,1.81.02,2.72.04.16,0,.32.08.46.14.19.08.37.26.55.26,2.19.03,4.37.03,6.56.07.36,0,.85-.22,1.01.38,0,.03.14.05.22.05,1.44.1,2.88.05,4.34.29,1.62.26,3.3.1,4.96.11.58,0,1.09.36,1.28.96.49-.05,1.13.07,1.46-.2.37-.29.68-.29,1.04-.29.63,0,1.26,0,1.89.04.17.01.33.21.5.24.26.04.66.11.78-.02.38-.43.94-.33,1.13-.12.34.38.69.29,1.05.3.73.02,1.46.05,2.19.02.52-.02.76.37,1.05.64.27.24,1.1.48,1.28.17.22-.37.51-.32.81-.32,2.32-.03,4.64-.04,6.96-.06.47,0,.95.03,1.42.06.11,0,.3.05.3.09.08.53.49.35.78.36.83.03,1.67-.06,2.47.1.45.09.78.15,1.14-.12.21.52.68.31,1.05.38.3.06.6.07.89.16.24.07.46.28.7.29.89.04,1.77.02,2.66.03.95,0,1.9-.03,2.84.03.89.06,1.77-.05,2.69.32.62.25,1.63.48,2.32-.29.05-.05.19-.03.29-.03.63,0,1.26,0,1.89,0,.13,0,.35.02.38.08.18.55.74.41.93.28.63-.42,1.12-.34,1.76.01.61.34,1.52-.32,2.07.5.75-.02,1.45.15,2.17.33.56.14,1.17.03,1.76.06.13,0,.34.07.37.16.17.51.74.31.79.21.28-.54.77-.27,1.14-.36.24-.06.5-.01.85-.01-.35-.78-1.4-.87-1.55-1.8,1.92,0,3.73,0,5.54,0,.16,0,.32,0,.47.04.1.02.17.12.26.18-.09.08-.17.22-.27.23-.35.04-.71.02-1.06.05-.14.01-.32.04-.4.14-.34.43-1.02.46-1.34.04-.04-.06-.14-.15-.15-.14-.24.14-.48.28-.68.46-.07.06-.06.25-.03.37.01.04.17.06.26.08.19.03.38.04.57.06.05.27.08.47.13.73.45,0,.88,0,1.31,0,3.39.02,6.78.05,10.17.08.15,0,.36,0,.44.1.51.55,1.31.43,1.68.2.57-.37,1.12-.21,1.67-.34.3-.07.75.14.82-.42,0,0,.3-.01.43.04.1.04.14.19.17.23.26-.27.51-.49.7-.76.04-.06-.08-.37-.17-.38-.28-.06-.59-.03-.88-.07-.09-.01-.18-.11-.26-.16.09-.08.17-.2.27-.22.33-.05.85.06.96-.11.31-.48.75-.28,1.12-.4.39-.13.74-.3,1.19-.34.82-.07,1.78.4,2.47-.45.03-.04.15,0,.23,0,.33,0,.67-.05,1-.01.63.08,1.4-.42,1.88.4.02.03.11.02.17.02.49.02.98.05,1.47.05,1.22,0,2.44-.03,3.66-.03.12,0,.24.12.35.19-.12.07-.24.17-.36.19-.21.03-.43-.03-.65,0-.47.06-1.08-.36-1.34.4-.01.04-.15.04-.22.04-1.41,0-2.83-.01-4.24,0-1.08,0-2.16.03-3.25.06-.08,0-.2.06-.23.12-.03.07,0,.22.05.26.37.26.66.61,1.23.52.6-.09,1.22-.03,1.83,0,.25.02.49.15.74.24.18-.12.43-.23.59-.42.3-.35.59-.32.96-.03.16.13.53.03.8-.02.15-.03.28-.23.42-.23.89-.02,1.78.04,2.66-.03.86-.07,1.71-.28,2.56-.44.12-.02.21-.16.32-.24-.11-.08-.21-.21-.33-.22-.36-.03-.73-.01-1.13-.01.03-.27.07-.42.05-.57-.08-.59.18-.82.76-.78.17.01.34-.06.5-.12.25-.09.48-.26.74-.3.39-.06.79-.02,1.18-.04.12,0,.24-.08.35-.13.18-.09.36-.29.53-.29,2.82-.01,5.64,0,8.46.02.16,0,.35.06.46.17.37.33.65.3.95-.08.15-.19.38-.46.56-.46,1.04.03,2.11-.29,3.12.27.21.11.56-.03.84-.06.53-.06,1.15-.32,1.56-.13.56.27,1.08.24,1.63.25.55.01,1.1,0,1.64,0,.04.05.07.1.11.16-.16.16-.33.32-.57.56q-.1.68-.94.68c-.25,0-.5,0-.76,0l-.1-.14c.1-.11.19-.28.31-.3.29-.04.59,0,.88-.03.1-.01.18-.14.27-.22-.09-.08-.18-.22-.27-.22-1.12-.02-2.24-.01-3.43-.01.04.2.05.44.11.45.55.14.3.54.33.85-.25.08-.46.15-.67.21.14.26.25.48.4.76.4,0,.83,0,1.26,0,.14,0,.3.05.43.11.22.1.42.27.65.33.28.07.66-.09.77.36,0,0,.29-.03.42-.09.16-.07.3-.2.45-.29.11-.06.27-.07.34-.16.25-.31,1.13-.4,1.42-.14.5.44,1,.85,1.76.8.75-.05,1.5,0,2.25-.04.25-.01.5-.14.82-.25.12.1.41.23.53.45.18.34.28.24.52.08.4-.26.83-.59,1.28-.64.99-.1,2-.06,3.01-.04.21,0,.4.25.62.3.27.06.8.05.8.02.06-.52.46-.35.73-.36.71-.02,1.41,0,2.12,0,1.73,0,3.47,0,5.25,0-.07-.57.32-.48.64-.48,1.16,0,2.33.02,3.49-.01,1.12-.03,2.31.34,3.33-.46.72.2,1.59-.41,2.18.43.01.02.08.01.11.01.78,0,1.57,0,2.34,0,.26-.7-.35-.92-.58-1.31-.12-.19-.39-.37-.61-.4-.53-.06-1.06-.03-1.59-.01-.1,0-.19.09-.29.13-.2.1-.4.27-.6.28-.8.03-1.61.01-2.4.01-.18.78.58.31.72.75-.8.14-1.54.22-2.22-.41v-.64c.89-.53,1.32-1.81,2.68-1.4,0-.53.28-.55.66-.54.73.03,1.46-.03,2.19,0,.35.02.69.16,1.13.26.33-.39.46-.36,1.11.12.15.11.67.03.68-.02.12-.63.62-.4.94-.4,1.56,0,3.11.05,4.67.07.24,0,.49-.06.56-.07.27-.53.47-.91.7-1.36-.72,0-1.34,0-1.97,0-.09,0-.25.03-.26.08-.17.59-.67.37-1.02.39-.64.04-1.29-.01-1.94-.02-.37,0-.74,0-1.1,0-.1-.81-.1-.81.62-.81,1.24,0,2.48-.07,3.72,0,.57.03.62-.6,1.07-.64-.05-.1-.13-.3-.16-.3-.6.13-1.3-.38-1.82.32-.08.1-.49-.03-.74-.09-.09-.02-.18-.21-.23-.2-.53.15-1.22-.43-1.61.36-.03.05-.24,0-.35,0-.22-.3.21-.94-.52-.91,0-.11-.01-.25.04-.33.29-.48,1.19-.58,1.7-.31.25.13.66.19.9.07.46-.23.69-.21.92.27.06.12.21.2.32.29.05-.13.12-.26.14-.39.02-.11-.01-.23-.02-.33.53-.31,1.29.28,1.63-.54.24.34.41.82.76.12.06-.12.7-.11.73-.04.19.52.61.34.94.35.96.03,1.93-.03,2.89.04.78.06,1.54.25,2.31.38.05,0,.14.04.15.08.16.59.57.26.9.29,0-.14,0-.24.02-.33.03-.14.08-.28.12-.42.13.08.25.17.39.23.1.04.22.08.32.06.06-.01.11-.14.12-.22.02-.17,0-.34,0-.57.98,0,1.93-.01,2.87,0,.28,0,.66-.14.73.36,0,.03.33.08.34.05.29-.59.82-.28,1.25-.35.4-.07.93.19,1.16-.41,0,0,.25.08.39.12.14.03.3.09.42.06.19-.06.35-.25.53-.27.51-.05,1.02-.02,1.54-.05.15,0,.39-.03.43-.12.16-.4.49-.31.79-.32.99-.02,2.05.2,2.94-.09,1.08-.36,2.12-.16,3.17-.28.08,0,.16,0,.24-.01.09-.02.17-.06.26-.1.23-.1.46-.29.69-.3,1.26-.05,2.52-.05,3.78-.08.16,0,.32-.07.47-.14.19-.08.35-.26.54-.28.43-.05.87-.03,1.3-.04.13,0,.37-.02.38-.07.14-.56.59-.32.91-.38.67-.14,1.45.3,2.01-.4.05-.06.27-.08.34-.02.39.33.67.13,1.1,0,.87-.25,1.82-.21,2.5-.27.73-.77,1.13-1.51,2.18-1.64-.53-.68-.1-1.36-.11-2.05,0-.19.02-.37.02-.48,1.22-.16,2.36-.29,3.49-.48.63-.11,1.24-.32,1.86-.49.05-.01.07-.12.1-.19.15-.36.3-.35.44,0,.14.35.29.26.51.07.17-.14.38-.26.58-.33.2-.07.56,0,.61-.1.22-.44.6-.3.93-.34.29-.04.58-.05.89-.07.03-.27.05-.5.1-.89.22.16.34.3.5.35.23.08.48.1.73.14.02-.56.45-.34.74-.36.49-.04,1.23.14,1.42-.1.32-.43.68-.33,1.21-.48-.19-.18-.29-.35-.42-.38-.2-.05-.43-.03-.65,0-.43.06-.47-.12-.39-.33.57-.15,1.04-.29,1.51-.4.47-.11.9-.24,1.36-.46.52-.25,1.18-.27,1.69-.65-.24-.5-.66-.54-.99-.09Zm-3.49-10.69c.12.13.21.22.29.31-.12.08-.24.23-.35.22-.15-.01-.29-.15-.44-.23.15-.09.29-.18.5-.3Zm-21.22-39.35c.28-.02.57-.01.91-.01-.07.22-.07.25-.08.25-.29.03-.57.06-.86.08,0-.11.01-.32.03-.32ZM55.59,22.64h-.73c0-.11,0-.31.02-.31.24-.02.48-.01.73-.01,0,.11,0,.22,0,.32Zm3.8-1.3c0-.11,0-.21,0-.32.23,0,.47,0,.7.01,0,0,0,.2,0,.3h-.71Zm-27.64,17.57c-.37,0-.74-.04-1.11-.07,0-.1,0-.2,0-.29.38-.04.76-.09,1.15-.11.06,0,.2.16.18.22-.02.1-.14.25-.21.25Zm-1.27,12.9c-.22.04-.43.09-.75.15.03-.2.05-.45.08-.45.22-.01.45.02.67.05,0,.09,0,.17,0,.25Zm3.99,1.05c-.27-.13-.47-.23-.68-.33.23-.09.45-.24.69-.25.18-.01.37.15.56.23-.18.11-.37.23-.57.35Zm2.94-6.4c-.09.03-.2.05-.29.02-.25-.07-.49-.16-.73-.24.23-.09.46-.18.69-.28,0,.03.02.05.03.08.1,0,.21-.01.29.02.12.05.22.14.33.22-.11.06-.21.14-.32.18Zm-.39-3.11s-.1-.29-.05-.33c.23-.21,1.29-.09,1.57.15v.19c-.51,0-1.02,0-1.52-.02Zm1.38,13.86s-.14-.14-.13-.21c0-.07.1-.19.16-.19.35,0,.7.03,1.05.04v.3c-.36.02-.72.05-1.08.05Zm3.44-13.58s0-.1,0-.15h1.2v.15h-1.2Zm2.28-9.6c-.07.11-.08.25-.11.33-.59.25-.87-.16-1.17-.48-.04-.04.07-.33.14-.34.27-.06.55-.07.82-.05.22.02.43.11.65.16-.11.13-.25.24-.34.38Zm.83,29.61c-.16-.15-.28-.26-.4-.37.13-.07.27-.2.4-.19.14,0,.28.15.42.23-.12.09-.23.18-.42.33Zm1.76.3h-.85v-.81c.97-.17,1.04-.11.85.81Zm1.35.49c-.09-.15-.18-.29-.27-.43-.06-.1-.17-.19-.18-.3,0-.06.13-.2.21-.2.43,0,.87,0,1.29.05.08,0,.14.2.22.31-.42.19-.84.38-1.27.57Zm23.02,14.82c-.16-.02-.31-.14-.47-.22.14-.11.29-.22.51-.4.14.2.22.31.29.42-.11.07-.23.21-.33.2Zm13.88-63.87c.48.09.85.2,1.22.22.47.04.95,0,1.42.01.13,0,.27.08.4.12-.01.06-.02.12-.03.18h-5.78l-.02-.18c.93-.39,2.05.23,2.79-.35Zm1.66,9.03h-2.09v-.18h2.09c0,.06,0,.12,0,.18Zm2.93-4.38c-1.3,0-2.6-.04-3.89-.03-.3,0-.73-.18-.86.36-.01.06-.28.09-.44.09-.87.01-1.78-.14-2.58.09-.44.12-.52-1.15-1.01-.15-.09.19-.85.07-1.3.08-.47,0-.95,0-1.42-.01-.45,0-.91.02-1.36-.02-.31-.02-.72.18-.88-.33-.02-.07-.32-.06-.49-.07-.41-.02-.83-.03-1.24-.04-.12,0-.32-.02-.33.03-.3.77-.56.17-.83-.02-.07-.05-.14-.11-.32-.25.29-.04.45-.09.61-.09,1.14,0,2.28-.03,3.42.02.76.03,1.59.42,2.27.23,1.84-.5,3.69-.11,5.52-.32.11-.01.29,0,.33-.07.42-.75,1.29-.48,1.58-.27,1.06.76,2.17.16,3.22.37.18.04.36.05.54.08,0,.06.01.11.02.17-.19.05-.38.15-.57.15Zm.24-4.11c-.13,0-.36-.25-.34-.33.05-.16.22-.37.36-.39.35-.04.74-.19,1,.31.07.14.52.08.81.11-.06.11-.12.3-.19.3-.54.02-1.09.03-1.64,0Zm2.3,4.13c-.28.32-.26,1.02-.96.85-.75-.18-.21-.83-.5-1.19.04-.05.08-.09.12-.14.72.03,1.44.06,2.16.1,0,.08.01.15.02.23-.28.05-.56.09-.85.14Zm1.7.72c-.27.02-.54.04-.8.07,0-.09,0-.26.02-.26.27-.01.53-.01.84-.01-.05.17-.05.2-.06.2Zm.33-.92l-.26-.18c-.13-.08-.26-.16-.39-.24.15-.08.29-.2.45-.22.09-.01.27.12.29.21.03.13-.05.29-.08.43Zm11.95-3.44c-.45.02-.9,0-1.44,0,.05-.29.08-.49.09-.59.5.04.94.06,1.36.13.12.02.23.18.34.27-.12.07-.23.18-.35.19Zm2.77.46c-.49.02-.98,0-1.45,0-.13-.23-.24-.43-.37-.65.3-.35.86-.33,1.18,0,.14.15.43.16.64.26.1.05.18.15.26.23-.09.06-.18.16-.27.16Zm1.62,2.37c-.19-.12-.33-.21-.47-.3.17-.07.33-.2.5-.21.14,0,.28.14.43.22-.14.09-.28.18-.46.29Zm19.47,60.01c-.26,0-.75.21-.63-.47h1.07c-.22.24-.33.47-.44.47Zm43.89-.44c.1.11.19.24.31.31.12.07.28.11.42.11.9,0,1.81-.02,2.71,0,.36,0,.85-.16.96.45.01.07.23.1.35.14,0,.06,0,.12,0,.17h-4.89c-.01-.21-.05-.48-.03-.74.01-.15.11-.3.17-.45Zm-2.93-62.32s.12.14.12.22c0,.05-.07.16-.12.16-.41.01-.82,0-1.23,0,0-.13,0-.26,0-.4.41,0,.81,0,1.22,0Zm1.48,61.93c-.47.42-1.15.45-1.72.16,0-.05,0-.11,0-.16h1.73Zm-11.85-62.44c.99-.12,2.02-.41,2.98-.27.71.1,1.42.29,2.14.27.33,0,.65-.22.99-.29.3-.06.62-.06.93-.07.41-.01.82,0,1.23,0,0,.08,0,.16,0,.24-.13.03-.26.08-.39.09-.26.02-.57-.07-.62.36,0,.06-.26.13-.4.13-.47.01-.94-.01-1.42,0-.35.01-.75-.13-.98.32-.04.08-.49.1-.52.03-.27-.53-.74-.31-1.13-.34-.41-.03-.83-.03-1.24.01-.19.02-.36.19-.55.28-.11.05-.28.14-.35.09-.32-.22-.6-.47-.9-.71.07-.05.13-.15.21-.16Zm-5.16,62.08c.02-.06.25-.1.36-.06.19.06.35.26.53.27.69.04,1.38.02,2.07.04.23,0,.54-.1.6.3,0,.03.32.05.32.02.14-.43.51-.32.79-.32,1.3-.01,2.6-.01,3.9,0,.39,0,.86-.16.91.31.41-.12.75-.22,1.1-.33.27-.09.55-.18.77-.26.4.08.81.16,1.21.27.16.04.3.17.44.25-.03.08-.05.17-.08.25-.57,0-1.13-.02-1.7,0-.39.02-.87-.21-1.13.34-.03.07-.26.06-.39.06-2.86,0-5.72.01-8.58,0-.11,0-.24-.02-.33-.08-.23-.16-.45-.35-.67-.53l-.19.08c.01-.21,0-.43.06-.63Zm-5.21.26c1.26-.01,2.51,0,3.77,0,.05.06.09.12.14.18-.14.1-.28.28-.41.28-1.16.01-2.32,0-3.48-.02-.1,0-.21-.15-.31-.23.1-.07.19-.19.29-.19Zm.07,2.2c-.22.01-.45-.05-.68-.08,0-.08,0-.17,0-.25.23-.05.46-.11.82-.19-.06.25-.09.52-.14.52Zm32.77,2.24c-.24.14-.51.25-.76.37-.44-1.15-1.46-.79-2.29-.81-2.03-.05-4.06.05-6.09-.06-.58-.03-1.12,0-1.68.03-.86.06-1.74.09-2.6-.01-.52-.06-.99-.44-1.56-.3-.23.06-.43.24-.66.27-.25.04-.61.06-.75-.08-.24-.25-.36-.21-.62-.05-.4.23-.81.37-1.26-.03-.17-.14-.65-.16-.82-.02-.54.44-.8-.07-1.05-.3-.32-.28-.52-.33-.82.04-.07.08-.29.02-.44.02,0-.42-.32-.3-.55-.31-.41-.01-.83-.03-1.24.01-.18.02-.34.21-.53.26-.3.08-.6.1-.91.14.03-.27-.07-.42-.38-.43-.36-.02-.72.04-1.02-.38-.13-.19-.71-.11-1.08-.08-.29.02-.56.16-.84.25-.27-.08-.6-.16-.92-.28-.2-.07-.37-.24-.57-.3-.28-.09-.59-.1-.87-.17-.18-.05-.35-.15-.53-.23.18-.08.36-.23.54-.23,1.28,0,2.56.02,3.84.04.39,0,.79-.04,1.18,0,.25.03.49.2.74.28.22.07.45.13.67.13,3.17.01,6.34.01,9.51.02,1.06,0,2.13,0,3.19.03.25,0,.49.16.74.24,0,.06.02.12.03.18.15-.13.3-.26.34-.3.39.12.88.36.95.27.6-.75,1.39-.34,2.08-.39.74-.06,1.49.01,2.24.03.06,0,.15-.02.17.02.55.68,1.33.28,1.99.42.15-.56.34-.62,1.39-.38.04.39.07.8.11,1.17.4.19.77.36,1.13.53.05.02.11.08.11.11-.02.1-.03.25-.1.29Zm-3.01-2.86c.18-.19.35-.38.58-.62h1.2c0,.73-.87,1.02-1.78.62Zm2.7-62.97c-.23.05-.45.18-.67.28-.03.08-.06.17-.08.25-.2-.13-.38-.29-.6-.38-.13-.05-.32-.03-.46.01-.2.06-.37.26-.56.27-.87.04-1.8-.17-2.57.11-.5.18-.44-1.25-.97-.19-.1.21-.84.11-1.28.13-.27.02-.55,0-1.02,0,.25-.39.4-.68.61-.92.47-.53.48-.63.01-1.14.6-.4,1.17-.84,1.96-.69.02,0,.05,0,.06,0,.27.64.97.41,1.45.63,0,.07,0,.15-.01.22-.7.06-1.4.11-2.13.17v.71c1.22,0,2.44,0,3.65-.01.1,0,.2-.14.29-.22.07-.06.11-.18.18-.19.65-.12,1.3-.25,1.96-.32.21-.02.43.2.65.22.31.03.67.06.94-.06.51-.23,1.89-.22,2.33.11.56-.41,1-.4,1.51.05.07.07.16.24.13.28-.17.23-.37.45-.59.64-.05.04-.29-.03-.3-.07-.12-.55-.57-.38-.9-.4-.37-.03-.75.03-1.12.05-.14,0-.34-.02-.4.05-.58.7-1.37.28-2.06.41Zm2.2,64.48c-.74.08-.8.03-.78-.79.12-.02.25-.05.38-.06.11-.01.23,0,.4,0v.85Zm4.5-.92c-.39.15-1.01-.28-1,.54-.34,0-.63.02-.92,0-.12-.01-.23-.13-.35-.2.07-.09.14-.19.22-.28.09-.1.18-.19.27-.29-.11-.05-.23-.14-.34-.14-.92-.01-1.85,0-2.77,0-.02-.05-.05-.1-.07-.15.13-.15.27-.3.39-.44-.13-.18-.42-.47-.37-.53.19-.26.45-.62.71-.65.96-.08,1.92-.03,2.87-.03.16.51-.11.49-.42.48-.14,0-.28.07-.42.11.07.14.12.3.22.4.22.24.44.51.72.65.2.11.5.07.75.04.15-.02.29-.16.43-.24.04.16.08.32.11.48.01.07-.01.15-.02.26Zm.56-2.59c.23.01.45.03.68.04,0,.09-.01.26-.03.26-.22.02-.45.01-.67.01l.02-.31Zm2.13,2.58c-.41.03-.76.14-1.08-.29-.19-.26-.6-.34-.91-.52-.07-.04-.13-.13-.15-.2,0-.04.09-.16.13-.15.35.07.71.14,1.06.24.3.08.59.19.95.3v.63Zm-.16-2.19c-.09,0-.2-.16-.29-.24.14-.09.29-.18.48-.3.18.14.31.25.43.35-.21.07-.41.17-.62.19Zm7.75-62.62c.13.7-.31.76-.84.76-1.08-.01-2.17,0-3.25-.02-.13,0-.29-.13-.38-.24-.21-.26-.62-.28-.81,0-.27.38-.67.35-.98.03-.24-.25-.6-.38-.91-.57-.13-.08-.25-.16-.38-.24.14-.07.27-.2.41-.2,1.65-.03,3.31-.03,4.96-.06.34,0,.75.15.97-.33.04-.09.36-.07.56-.07.51,0,1.02,0,1.48,0,.2.24.37.45.65.78-.54.06-1,.12-1.5.18Zm19.6,63.56c-.1-.19-.25-.37-.28-.57-.07-.38.16-.41.57-.26-.1.28-.2.56-.29.83Zm5.66-.5c-.31.04-.63.02-.94.05-.4.04-.75,0-1.15.33-.32.27-1,.12-1.59.17v-.93c1.24,0,2.46,0,3.69,0,.09,0,.17.11.26.17-.09.07-.18.2-.28.21Zm18.24-.15c-.41.23-.82.45-1.29.72v-1.01c.45.03.89.06,1.32.09l-.03.19Zm1.36,1.83c-.37.38-.76.74-1.24,1.21,0-.56,0-.89,0-1.22,0-.07.03-.15.05-.27h1.18c0,.1.05.24,0,.28Zm.77-1.21c-.13-.25-.27-.51-.4-.76l.2-.23c.29.1.58.2.88.3l-.67.69Zm.68,1.31c0-.8.14-.88,1.26-.7.02.22.03.44.05.7h-1.31Zm14.24-2.14c0,.11,0,.22,0,.32-.27,0-.55,0-.82-.01,0,0-.02-.25-.01-.25.27-.03.55-.04.83-.06Zm-3.03.9c.49.08,1.02-.23,1.48.35.17.21.74.11,1.13.13.31.02.62,0,.99,0-.01.19-.01.36-.05.52-.02.08-.09.21-.14.21-.09,0-.22-.05-.28-.12-.38-.42-.64-.41-1.03.03-.06.07-.29.1-.33.05-.42-.46-.92-.7-1.55-.72-.12,0-.23-.18-.35-.27l.13-.17Zm-3.78-1.73c0,.07.01.13.02.2-.22.03-.44.05-.66.08-.23.03-.53-.07-.56.33,0,.05-.16.14-.22.12-.08-.03-.18-.14-.19-.22-.03-.15,0-.31,0-.5h1.63Zm-.31,5.22c-.02-.22-.03-.45-.05-.71.52-.04.95.31.91.71h-.86Zm1.85-1.69c-.25.56-.73.4-1.15.42-.51.02-1.05-.08-1.37.51-.06-.01-.12-.03-.18-.04-.21-.58-.42-1.16-.62-1.74.05-.03.09-.06.14-.09-.3-.05-.61-.1-.91-.15,0-.07,0-.13.01-.2.67,0,1.35,0,2.02,0,.04,0,.11.07.12.12.13.77.74.6,1.24.64.18.01.36-.03.53,0,.19.04.37.13.56.2-.13.11-.33.18-.39.32Zm-.42-2.3c-.12-.42.82-.78-.18-1.19h1.87c-.62.32-.78,1.25-1.7,1.19Zm2.9,2.71c-.11.01-.31-.04-.33-.11-.14-.44-.49-.35-.82-.38-.16-.01-.31-.13-.47-.19.16-.07.31-.15.47-.19.11-.03.23,0,.35,0,.86,0,1.01.09.95.63-.01.1-.09.26-.15.26Zm.67,1.24c-.02-.23-.04-.46-.07-.74h1.29c-.31.39-.51.94-1.22.74Zm1.71-.69c-.04-.08-.28-.05-.45-.06.12-.16.22-.38.39-.44.22-.08.5-.11.57.28.02.13.27.21.51.39-.43.04-.76.34-1.02-.17Zm3.64-5.48c.34.02.75-.15.96.37.03.08.33.04.5.07.22.03.44.08.7.12-.36.46-1.94.52-2.55.15.14-.25.26-.46.4-.71Zm-1.32,2.01c.32-.09.65-.24.98-.26.7-.04,1.4-.01,2.1-.01.03.06.07.11.1.17-.24.23-.47.47-.76.75-.34-.64-.95-.35-1.47-.43-.32-.05-.64-.14-.95-.21Zm4.3,1.86c-.12.21-.31.41-.35.64-.08.49-.39.39-.74.37-.01-.28-.03-.54-.04-.87h-1.08c.2.3.33.5.52.78-.28.06-.54.12-.85.19-.03-.35-.05-.62-.08-.92-.65-.02-.44-.45-.4-.84.95,0,1.87-.03,2.78.03.17.01.33.38.49.58-.08.02-.17.03-.25.05Zm1.53-3.42c-.31.05-.54-.04-.33-.56.25.1.49.2.73.31-.13.09-.26.23-.4.25Zm2.35,1.32c-.22.2-.46.38-.7.57-.04-.03-.07-.07-.11-.1-.15-.03-.32-.02-.46-.09-.08-.04-.13-.28-.13-.29.42-.2.84-.41,1.27-.57.1-.04.26.09.39.13-.09.11-.17.24-.28.34Zm1.05-1.37c-.48.03-.97.05-1.45.03-.08,0-.15-.16-.23-.25.08-.07.15-.18.23-.19.25-.02.5,0,.76,0h0c.23,0,.47-.02.7.01.07,0,.15.14.18.23,0,.04-.11.16-.18.17Zm.59,1.08c.63-.02,1.06-.75,1.9-.45-1.27.78-1.33.79-1.9.45Zm4.95-1.09h-.81c-.02-.29-.04-.56-.06-.9.3,0,.56,0,.82,0,.01.29.03.57.05.9Zm16.78-68.06c-1.44.69-2.98.42-4.49.44-1.69.02-3.38,0-5.07-.01-.16,0-.32-.11-.49-.17.16-.08.33-.22.49-.22.88-.04,1.77-.04,2.65-.06.32,0,.67.06.85-.36.04-.09.31-.1.48-.1,1.3-.01,2.6,0,3.9-.03.27,0,.55-.15.88-.24.22.08.52.17.81.29.09.04.23.16.21.2-.04.1-.13.21-.23.26Z"/>
      <path class="cls-1" d="m201.12,89.03c-.15,0-.35-.07-.44-.17-.32-.35-.7-.34-.97.05-.05.08-.18.17-.26.16-.08,0-.18-.13-.2-.22-.11-.42-.38-.59-.8-.59-.65,0-1.3.02-1.95,0-.54-.02-.89.12-.82.77-1.81,0-3.55,0-5.28,0-.16,0-.32-.11-.47-.17-.17-.07-.33-.21-.5-.21-.79-.03-1.58-.03-2.37-.02-.12,0-.31.08-.36.18-.26.48-.55.24-.84.07-.09-.06-.16-.2-.25-.21-1.12-.09-2.24-.07-3.29.42-.08.04-.09.24-.16.45h5.49c-.05.21-.07.46-.12.46-.59.06-.35.48-.39.78h7.44c-.73-.44-1.03-.76-.07-.83.02,0,.05,0,.05-.02.47-.74,1.19-.28,1.8-.36.07,0,.2.04.2.08.08.62.55.35.87.37.43.02.87-.01,1.3.01.16,0,.35.07.47.17.27.23,1.1.4,1.26.15.26-.42.63-.32.98-.34.57-.02,1.14,0,1.67,0,.2-.26.37-.48.61-.79-.3-.05-.54-.12-.77-.13-.61-.03-1.22-.02-1.83-.05Zm-8.24.95c-.1,0-.22-.18-.33-.28.05-.07.09-.14.14-.2.23.08.46.17.69.25-.17.08-.33.22-.5.23Z"/>
      <path class="cls-1" d="m354.51,21.24c.13-.04.25-.21.33-.35.05-.09.02-.22.03-.34-.58,0-1.43-.25-1.69.04-.39.43-.75.27-1.13.36-.23.06-.47.1-.69.18-.17.06-.31.26-.47.27-1.02.03-2.05.03-3.07.03-.81,0-1.62,0-2.42.03-.1,0-.21.11-.31.17.05.07.08.2.14.21.62.15,1.24.31,1.86.4.48.07.99.08,1.47.03.55-.05,1.1-.15,1.63-.3.57-.17.82.03.73.73h-2.34c.18.25.24.42.35.49.16.1.36.12.55.17,0,.08,0,.16-.01.24-.98.06-1.96.12-3.04.18.65.71.65.75,1.33.7,1.09-.08,2.17-.23,3.25-.34.29-.03.59,0,.89-.03.11-.01.23-.09.32-.17.15-.13.29-.29.36-.36.2-.48.37-.89.57-1.39.94.35.77-.78,1.36-.95Z"/>
      <path class="cls-1" d="m229.33,81.44c-.03-.28-.06-.56-.1-.91-.28.05-.57.01-.72.14-.51.46-1.35.5-1.88.04-.07-.06-.26-.02-.37.02-.19.07-.37.25-.55.26-.93.03-1.85,0-2.78.03-.23,0-.46.09-.69.14,0,.09,0,.18,0,.28.4.02.8.05,1.2.06.44.01.89,0,1.38,0-.04.31-.07.52-.09.72-.4-.45-.94-.39-1.16-.15-.31.34-.62.25-.93.27-.37.03-.75-.01-1.12.01-.34.02-.74.58-.65.91.64,0,1.29-.06,1.93.01.7.08,1.53-.44,2.07.43.02.03.11.02.17.02,1.12,0,2.24,0,3.28,0,.25-.31.45-.56.74-.91h-1.08c.03-.43.05-.83.08-1.27.37.07.83-.35.97.32,0,.04.17.07.27.07.45,0,.9,0,1.35,0,.03-.09.05-.18.08-.27-.34-.4-1,.09-1.39-.23Z"/>
      <path class="cls-1" d="m235.77,81.5c.08-.1.18-.19.26-.29-.13-.06-.27-.18-.37-.15-.17.04-.32.18-.46.28-.4.29-.69.84-1.37.54-.1-.41.04-1.13-.85-.77-.01.25-.03.52-.04.82-.38.02-.74,0-1.07.09-.27.07-.51.28-.74.46-.03.02,0,.2.05.26.33.41.73.63,1.3.56.52-.06,1.06-.04,1.59.02.24.02.45.23.69.29.23.06.57.14.7.03.54-.47,1.01-1.01,1.6-1.61-.52-.02-.97-.04-1.61-.07.17-.22.25-.34.34-.45Z"/>
      <path class="cls-1" d="m121.26,14.25c-.9.1-1.31-.54-1.83-1.21.34-.08.57-.13.85-.19-.02-.13,0-.34-.06-.37-.42-.18-.85-.41-1.3-.47-.58-.08-1.18-.04-1.77-.03-.14,0-.32.05-.4.15-.35.43-.66.43-.96-.03-.05-.08-.24-.16-.25-.15-.22.26-.42.53-.72.91.49,0,.79-.02,1.08,0,.28.03.57.08.83.16.22.07.41.23.62.3.5.17,1.02.28,1.52.46.31.12.76.28.84.52.17.5.5.35.8.36.38.02.76.01,1.15.02.02-.29-.05-.49-.4-.45Z"/>
      <path class="cls-1" d="m121.67,14.72s.01-.02.01-.02c0,0-.01,0-.02,0,0,0,0,.01,0,.02Z"/>
      <path class="cls-1" d="m288.62,81.42c-.31-.74-.89-.9-1.62-.86-.63.04-1.25,0-1.88.02-.15,0-.37,0-.44.09-.41.53-1.11.44-1.58.82-.13.1-.28.18-.41.27.15.07.31.2.46.2,1.08.02,2.16.03,3.24,0,.36-.01.71-.15,1.14-.25.27.53.86.23,1.48.12-.13-.13-.32-.24-.38-.39Z"/>
      <path class="cls-1" d="m146.2,9.43l.04.16c-.14.04-.28.06-.41.12-.11.05-.2.14-.3.22.11.08.22.21.34.22,1.01.16,2.08-.27,3.06.43.3.21.87.03,1.34.03.05-.74.64-.3.9-.54.2-.19.39-.39.72-.72-.71,0-1.25.02-1.78,0-.47-.02-.91.47-1.39.06,0,0-.04.01-.05.02-.96.49-1.22.4-1.54-.53-.83.04-1.68-.06-2.51.09,0,.08,0,.17,0,.25.53.06,1.06.12,1.59.18Z"/>
      <path class="cls-1" d="m94.86,11.93c.61-.03,1.23-.04,1.83.04.46.06,1.07-.32,1.35.4.01.03.15.03.22.03,1.06,0,2.13.02,3.19,0,.14,0,.28-.09.42-.14-.07-.12-.15-.23-.2-.36-.21-.56-.68-.45-1.11-.45-1.61,0-3.23,0-4.84,0-.17,0-.34-.04-.51-.09-.3-.08-.59-.18-.91-.27-.12.61.01.86.57.83Z"/>
      <path class="cls-1" d="m108.09,12.06c.15.54.59.33.92.35.49.04.99-.03,1.47.06.71.12,1.04-.67,1.7-.62v-.19c-.53-.18-.97-.34-1.41-.47-.08-.02-.2.08-.3.09-.29.03-.59.06-.88.04-.17,0-.34-.16-.5-.16-.75-.02-1.5-.03-2.24-.02-.25,0-.51.06-.76.1.67.22,1.08.97,1.85.77.05-.01.15.02.16.05Z"/>
      <path class="cls-1" d="m207.76,89.05c-.27,0-.57-.02-.79-.16-.7-.44-1.82-.35-2.28.26-.05.07,0,.22,0,.4.29,0,.57-.02.84,0,.16.01.32.08.46.14.17.08.33.26.5.27.77.03,1.54.02,2.31,0,.13,0,.25-.06.37-.11.21-.09.41-.23.63-.29.26-.06.55-.03.82-.09.13-.03.23-.15.35-.24-.03-.07-.05-.14-.08-.21-1.04,0-2.08,0-3.12,0Z"/>
      <path class="cls-1" d="m352.78,17.36c.09,0,.18-.1.27-.16.16-.09.31-.21.47-.28.14-.06.41,0,.44-.09.22-.48.64-.34,1.01-.39v-.41c-1.05-.29-1.76.28-2.47.83-.49-.54-.91-.54-1.35,0-.43-.53-.67-.5-1.18-.05-.15.13-.7.09-.73,0-.2-.53-.61-.35-.96-.39-.01.3-.03.6-.04.92,1.56,0,3.05,0,4.54,0Z"/>
      <path class="cls-1" d="m293.97,77.95c-.04.51-.44.35-.71.36-1.22.02-2.44.02-3.65,0-.39,0-.89.18-1.07-.42-.01-.04-.18-.06-.27-.06-.35,0-.69,0-1.07,0v.93h7.81c-.35-.38-.59-.64-.84-.89-.02-.02-.19.04-.19.07Z"/>
      <path class="cls-1" d="m281.38,81.39c-.22-.52-.57-.32-.92-.3-.02.3-.05.57-.07.87-.71,0-1.38,0-2.04,0-.17,0-.34.04-.5.1-.21.08-.4.19-.59.3-.12.06-.23.14-.34.21.12.06.24.18.36.18.86.03,1.73.05,2.59.03.23,0,.45-.2.68-.31v-.2c.54.05,1.12.21,1.53-.33.06-.08.13-.16.2-.23-.09-.06-.17-.13-.27-.16-.22-.06-.58-.04-.63-.15Z"/>
      <path class="cls-1" d="m194.86,9.69c.65.03,1.3-.04,1.94.04.51.06.7-.39,1.08-.51-.13-.17-.27-.34-.39-.52-.05-.07-.04-.18-.08-.36-1,.28-2.06-.34-2.92.51-.13.13-.36.15-.55.23.13.14.25.31.41.42.14.1.33.17.5.18Z"/>
      <path class="cls-1" d="m76.35,10.97c.18-.1.35-.26.55-.29.33-.05.67-.03,1-.03.71,0,1.41,0,2.12-.04.11,0,.2-.21.3-.33-.4-.12-.5-.86-1.06-.37-.24.1-.47.27-.71.28-.94.03-1.89.08-2.83,0-.71-.06-.95.6-1.53.78.68.13,1.33.13,1.98.12.06,0,.12-.08.18-.12Z"/>
      <path class="cls-1" d="m278.34,81.49c.1,0,.19-.13.29-.2-.1-.08-.19-.22-.3-.24-.37-.05-.74-.04-1.11-.08-.1,0-.19-.1-.28-.15.06-.08.13-.16.19-.24.1-.13.19-.25.28-.38-.05-.06-.09-.11-.14-.17-1.22,0-2.43,0-3.65.02-.13,0-.25.21-.37.33.04.06.07.12.11.18h2.19v.93c.95,0,1.87,0,2.79,0Z"/>
      <path class="cls-1" d="m345.52,33.94s0-.01,0-.02c0,0-.01,0-.02,0l.02.02Z"/>
      <path class="cls-1" d="m348.42,32.74c-.49.39-.94.18-1.39.3-.19.05-.37.12-.55.2-.11.05-.2.13-.31.19-.07-.11-.16-.2-.2-.32-.16-.48-.4-.56-.99-.25.75.12.53.63.53,1.05.72,0,1.44.04,2.16.01.24-.01.46-.19.69-.29-.02-.06-.04-.13-.06-.19.73.15,1.29-.09,1.8-.77-.64,0-1.36-.21-1.7.05Z"/>
      <path class="cls-1" d="m31.52,41.62c-.38-.04-.68-.08-.97-.11-.25-.03-.5-.05-.74-.1-.21-.04-.42-.2-.62-.18-.74.07-1.47.21-2.21.28-.45.05-.9.02-1.36.04-.26.01-.52.06-.78.09.59.48,6.22.43,6.68-.02Z"/>
      <path class="cls-1" d="m138.34,10.12c.56.3,1.4.05,2.13.05v-.7c-.15-.06-.4-.09-.41-.17-.09-.62-.55-.32-.94-.41.11.5-.19.49-.51.49-.9,0-1.81,0-2.71.02-.23,0-.46.05-.68.08,0,.05,0,.1,0,.16,1.03.16,2.1-.05,3.12.49Z"/>
      <path class="cls-1" d="m293.1,80.55c0,.38-.23.48-.56.48-.7,0-1.41,0-2.11,0-.01.08-.03.16-.04.24.97.97,2.26.67,3.33.71.23-.22.41-.34.52-.5.07-.11.1-.36.03-.43-.32-.31-.64-.69-1.17-.5Z"/>
      <path class="cls-1" d="m345.7,39.79c-1.1,0-2.21,0-3.31,0-.13,0-.27.13-.4.2.12.07.24.19.35.19,2.27.02,4.53.03,6.8.02.13,0,.26-.14.39-.22-.13-.07-.27-.2-.4-.2-1.14-.02-2.29,0-3.43,0h0Z"/>
      <path class="cls-1" d="m221.33,10.06c.27.04.53.09.81.14.05-.3.09-.53.15-.87,1.27.51,2.54.43,3.93.3-.45-.39-.64-1.26-1.23-.25-.25-.59-.5-.6-.72-.03-.25-.17-.42-.38-.6-.39-.74-.05-1.49-.04-2.23-.04-.06,0-.15.1-.18.18-.02.05.03.19.07.2.93.2-.02.45,0,.75Z"/>
      <path class="cls-1" d="m13.99,54.49c.33.02.67.06,1,.06,1.42,0,2.83,0,4.25-.01.16,0,.43-.02.45.05.28.7.55.16.75.02.23.14.47.39.58.34.35-.15.65-.41,1.07-.7h-8.1v.25Z"/>
      <path class="cls-1" d="m345.52,6.05s0-.05.01-.05c.15-.1.29-.27.45-.28.47-.05.94-.03,1.41-.06.11,0,.22-.1.33-.15-.07-.09-.14-.18-.23-.26-.29-.26-.59-.5-.92-.78-.08.09-.19.23-.23.28-.34-.15-.59-.35-.79-.31-.2.04-.34.33-.51.5-.09.09-.2.18-.28.28-.08.09-.21.25-.19.28.2.24.41.46.64.66.04.03.19-.06.29-.1Z"/>
      <path class="cls-1" d="m352.38,30.78c.51-.03,1.05.08,1.43-.4.06-.08.13-.15.2-.23-.1-.07-.2-.2-.29-.18-.51.08-1.15-.32-1.49.4-.02.04-.15.02-.22.03-.83.12-1.66.25-2.49.37-.06,0-.13,0-.17.03-.08.06-.15.14-.22.21.08.06.16.17.25.18.37.04.74.04,1.11.06,0,0,0,0,0-.01.31,0,.63,0,.94,0,.12,0,.35-.06.35-.1.03-.44.35-.34.6-.35Z"/>
      <path class="cls-1" d="m156.03,83.04c.26-.62.21-.72-.54-.71-1.2,0-2.4.02-3.6.01-.2,0-.5,0-.59-.13-.29-.4-.55-.17-.85-.1.18.25.33.45.5.68,1.35,0,2.71-.02,4.07.01.33,0,.67.15,1.02.24Z"/>
      <path class="cls-1" d="m101.43,8.43c-.36,0-.7,0-1.03,0-.33,0-.68-.04-1,.03-.29.07-.54.29-.82.4-.61.25-.61.24-.61.44h3.45v-.88Z"/>
      <path class="cls-1" d="m364.86,14.72s0-.01,0-.02h-.01s0,0,0,0c0,0,0,.01,0,.02h.02Z"/>
      <path class="cls-1" d="m363.41,16.87h1.16c.29-.37.5-.63.68-.91.05-.08,0-.33-.05-.34-.58-.14-.38-.55-.35-.91h-.9c-.18.73-.35,1.41-.53,2.15Z"/>
      <path class="cls-1" d="m16.89,46.93c.47,0,1.07.16,1.38-.07.38-.29.74-.32,1.14-.39.12-.02.23-.13.35-.2-.11-.07-.21-.19-.33-.22-.48-.11-.88-.31-1.03-.87-.26.01-.53.02-.86.04.03.17.05.39.08.39.59.06.36.48.38.84-.4.02-.73.03-1.05.07-.08.01-.21.12-.22.19-.01.07.1.23.16.23Z"/>
      <path class="cls-1" d="m365.74,13.8c-.24-.13-.36-.33-.5-.5-.12-.15-.25-.32-.42-.39-.55-.21-.62.45-.98.62-.17.08-.24.39-.4.67h1.3c.04.18.08.34.12.5.28,0,.57,0,.89,0v-.9Z"/>
      <path class="cls-1" d="m351.46,29.45c.25,0,.71,0,.72-.07.11-.52.56-.31.91-.47-.01-.24-.02-.46-.04-.74-.67.13-1.28.27-1.89.35-.75.1-.77.11-.57.93.27,0,.56,0,.85,0Z"/>
      <path class="cls-1" d="m342.8,31.97c.1.06.2.18.3.18.43.02.86,0,1.29,0v-.02c.41,0,.82.01,1.23,0,.11,0,.21-.11.32-.17-.05-.09-.1-.19-.16-.28-.51-.66-1.22-.41-1.87-.42-.05,0-.13.05-.14.08-.05.44-.42.29-.67.38-.12.04-.2.16-.31.24Z"/>
      <path class="cls-1" d="m341.01,22.92c-.13.08-.26.2-.4.23-.23.05-.48.02-.7.08-.07.02-.16.31-.11.36.16.18.35.36.57.45.18.07.44.08.62,0,.29-.12.53-.33.8-.5.03.02.07.05.1.07.07-.15.1-.39.21-.43.6-.22.23-.54.21-.73-.36.1-.65.16-.94.25-.13.04-.24.14-.36.21Z"/>
      <path class="cls-1" d="m39.29,63.05c-.57,0-1.14,0-1.71.01-.22,0-.44.07-.66.11,0,.08,0,.17,0,.25.33.03.66.06.99.1.28.04.66-.13.74.35.13-.03.32-.02.39-.1.23-.27.8-.36.96-.07.25.44.49.26.76.11-.23-.82-.86-.77-1.47-.76Z"/>
      <path class="cls-1" d="m353.39,6.67c.18-.24.29-.39.41-.54.06-.08.14-.14.21-.22-.1-.07-.19-.18-.29-.19-.53-.02-1.06-.01-1.59,0-.09,0-.19.09-.28.15-.14.09-.26.19-.4.28-.14.09-.3.16-.45.24.17.09.33.25.5.26.66.03,1.32.01,1.89.01Z"/>
      <path class="cls-1" d="m132.58,83.3c-.04.07-.09.13-.13.2.14.08.27.23.41.23,1.26.01,2.52,0,3.78-.02.11,0,.21-.14.32-.22-.1-.06-.2-.18-.3-.18-1.36-.01-2.71,0-4.07,0Z"/>
      <path class="cls-1" d="m172.95,9.34c.12,0,.23-.16.35-.25-.12-.07-.23-.18-.35-.19-.63-.02-1.26,0-1.89,0v.02c-.65,0-1.3,0-1.95,0-.1,0-.19.13-.29.2.1.07.19.19.29.19,1.28.02,2.56.04,3.83.03Z"/>
      <path class="cls-1" d="m341.91,21.49c-.28-.05-.56-.1-.84-.14-.02-.19-.01-.33-.05-.46-.04-.13-.12-.25-.19-.37-.09.12-.23.23-.25.37-.06.3-.06.61-.09.95-.58.05-1.12.1-1.66.14,1.16.62,3.05.26,3.09-.49Z"/>
      <path class="cls-1" d="m333.46,43.41s-.01,0-.02,0c0,0,0,.01,0,.02,0,0,0,0,.01,0,0,0,0-.01,0-.02Z"/>
      <path class="cls-1" d="m335.22,43.79s0,0,0,0c0,0,0-.01,0-.02.1-.12.18-.31.29-.32.52-.05,1.05-.03,1.58-.07.11,0,.22-.14.33-.21-.11-.08-.22-.23-.32-.23-1.07,0-2.15.02-3.22.02-.33,0-.44.17-.43.46.62,0,1.23,0,1.77.36v.02Z"/>
      <path class="cls-1" d="m352.45,19.77c.57-.08,1.08-.14,1.62-.22-.03-.29-.05-.55-.07-.81h-.75c-.45.89-1.31.16-1.92.58.14.67,1.02,0,1.11.44Z"/>
      <path class="cls-1" d="m332.11,25.55c-.12.52-.5.35-.8.37-.51.03-1.02.02-1.53.05-.1,0-.2.12-.3.19.08.06.17.18.25.18.81.01,1.62.07,2.42-.03.32-.04.59-.44.89-.68l-.16-.19c-.27.03-.74.02-.76.11Z"/>
      <path class="cls-1" d="m343.52,38.9c.23-.21.4-.34.51-.5.06-.08.02-.23.03-.35-.37,0-.95-.13-1.07.04-.32.47-.73.32-1.11.4-.12.02-.23.13-.34.2.11.07.22.19.34.2.59.02,1.17,0,1.64,0Z"/>
      <path class="cls-1" d="m230.7,8.46h-1.73c-.02.3-.03.56-.05.86h1.77v-.86Z"/>
      <path class="cls-1" d="m39.89,35.11c-.22-.69-.75-.65-1.3-.7-.63-.05-.86.44-1.28.66l.06.21c.37-.07.74-.13.95-.17h1.57Z"/>
      <path class="cls-1" d="m354.07,11.43c-.03-.26-.06-.48-.09-.73h-1.48c-.29.27-.48.45-.78.73h2.35Z"/>
      <path class="cls-1" d="m197.8,90.51c-.25-.25-.99-.04-1.18.26.27.04.51.07.75.11-.02.02-.04.05-.05.07.15.12.3.33.46.34.62.04,1.25.02,1.88.02.03-.07.06-.13.09-.2-.14-.09-.27-.22-.43-.25-.5-.11-1.05.13-1.52-.34Z"/>
      <path class="cls-1" d="m174.25,88.63c-.04.05-.09.11-.13.16.12.08.23.23.35.24.8.03,1.61.03,2.41.01.13,0,.26-.15.39-.23-.13-.06-.25-.17-.38-.18-.88-.02-1.76,0-2.64,0Z"/>
      <path class="cls-1" d="m87.25,12.94c-.17,0-.34.08-.5.12,0,.07.02.13.03.2h2.98s.09-.07.13-.11c-.13-.08-.26-.21-.4-.22-.74-.02-1.49,0-2.23,0Z"/>
      <path class="cls-1" d="m337.78,24.09c.06,0,.14-.11.17-.19.02-.05-.04-.15-.09-.19-.21-.16-.43-.3-.68-.46-.4.8-1.31.2-1.88.59,0,.09,0,.17.01.26.82,0,1.65,0,2.47,0Z"/>
      <path class="cls-1" d="m361.85,9.32c.09,0,.3.01.52,0,.06,0,.14-.11.16-.18.02-.05-.04-.18-.08-.19-.64-.11-.3-.59-.41-.99.33,0,.72-.01.47-.48h-.71c-.18.21-.32.32-.4.46-.07.12-.13.3-.08.4.13.3.32.58.54.97Z"/>
      <path class="cls-1" d="m333.53,17.91c.15-.05.31-.04.47-.04.37,0,.74,0,1.16,0,.04-.29.09-.47.08-.64,0-.09-.09-.23-.16-.25-.09-.03-.21.04-.31.09-.26.11-.51.29-.78.34-.32.06-.66.01-1.08.01.07.3.13.51.18.73.15-.08.29-.18.45-.23Z"/>
      <path class="cls-1" d="m280.92,79.75c-.03.05-.06.11-.09.16.34.23.66.53,1.03.66.65.22.9-.38,1.41-.83h-2.35Z"/>
      <path class="cls-1" d="m355.32,31.02c-.03-.09-.11-.19-.19-.22-.12-.04-.27-.03-.5-.04-.12.02-.51.03-.51.08-.06.51-.45.37-.74.44-.09.02-.18.11-.23.19-.02.03.04.19.07.19.4,0,1.05.14,1.16-.04.22-.37.47-.36.77-.42.07-.01.18-.14.17-.17Z"/>
      <path class="cls-1" d="m156.8,87.82c-.71-.02-1.42-.03-2.13-.02-.09,0-.18.15-.27.22.09.06.17.17.26.17.35.02.71,0,1.06,0,.35,0,.71.01,1.06,0,.08,0,.16-.12.24-.18-.08-.07-.15-.19-.23-.19Z"/>
      <path class="cls-1" d="m286.3,78.33c-.81,0-1.59-.01-2.38.01-.11,0-.22.16-.33.25.03.07.05.14.08.2.78,0,1.56,0,2.35,0,.4,0,.4-.19.28-.47Z"/>
      <path class="cls-1" d="m23.59,52.76c-.7,0-1.41.01-2.11.04-.08,0-.16.12-.23.19.07.07.15.19.23.2.35.02.7,0,1.05,0v.02c.35,0,.7.02,1.05-.01.09,0,.16-.16.24-.24-.08-.07-.15-.2-.23-.2Z"/>
      <path class="cls-1" d="m347.66,50.56c-.06,0-.12,0-.17-.02-.58-.14-.96.24-1.36.53-.05.04,0,.32.01.32.31.01.66.08.92-.03.29-.13.51-.43.76-.66l-.16-.14Z"/>
      <path class="cls-1" d="m349.95,7.16c.32.1.63.26.94.39.04-.1.09-.2.13-.3-.35-.2-.7-.4-1.05-.61-.15-.09-.29-.23-.45-.28-.12-.03-.36.02-.38.09-.06.17-.02.38-.02.58.3.04.58.05.83.13Z"/>
      <path class="cls-1" d="m337.77,34.97c-.4.42-.9.26-1.36.29-.06,0-.13,0-.17.02-.07.05-.15.14-.15.21,0,.07.09.16.16.19.66.26,1.65-.06,2.12-.76-.27.02-.51-.04-.6.05Z"/>
      <path class="cls-1" d="m81.56,10.15c.31.02.62.03.93.02.48,0,.68-.21.47-.84-.51.15-1.02.3-1.53.46-.04.01-.08.15-.06.2.03.07.12.16.18.16Z"/>
      <path class="cls-1" d="m332.32,28.16c-.9,0-1.8,0-2.69.03-.05,0-.09.23-.14.37.99-.04,1.99-.08,2.98-.12-.04-.2-.1-.28-.15-.28Z"/>
      <path class="cls-1" d="m329.49,28.58s0,0,0-.01c0,0-.01,0-.02,0,0,0,0,0,0,0,0,0,0,0,0,0,0,0,0,0,0,0,0,0,.01,0,.02,0h0Z"/>
      <path class="cls-1" d="m88.41,9.63c0-.06,0-.11-.01-.17h-3c0,.06,0,.11,0,.17h3.01Z"/>
      <path class="cls-1" d="m207.85,82.86c-.46,0-.85-.23-.99.32-.02.06-.24.07-.36.11-.18.06-.35.13-.53.19.19.07.37.15.56.2.11.03.24,0,.35.01.61.11.68-.37.97-.84Z"/>
      <path class="cls-1" d="m104.83,8.37h0c.27.01.55.03.82,0,.1-.01.18-.13.27-.21-.09-.07-.18-.21-.27-.21-.57,0-1.13,0-1.7.03-.07,0-.14.14-.2.21.09.06.17.16.26.16.27.02.55,0,.82,0Z"/>
      <path class="cls-1" d="m343.71,61.71s0,0,0-.01c0,0-.01,0-.02,0l.02.02Z"/>
      <path class="cls-1" d="m344.21,61.3c-.33-.03-.44.13-.49.4.27.05.55.07.82.15.16.05.4.31.42.29.23-.22.42-.48.71-.83-.63,0-1.04.03-1.45,0Z"/>
      <path class="cls-1" d="m342.02,34.67c0,.07.13.21.2.21.59.01,1.18,0,1.76-.02.08,0,.15-.13.22-.2-.07-.07-.14-.2-.22-.21-.29-.02-.59,0-.88,0-.29,0-.59-.02-.88,0-.08,0-.2.14-.2.21Z"/>
      <path class="cls-1" d="m175.76,10.1c.05-.05.05-.27,0-.31-.25-.2-1.69-.06-2,.16.31.21,1.79.34,2.01.15Z"/>
      <path class="cls-1" d="m328.17,11.1c.09,0,.18-.14.27-.21-.1-.06-.19-.17-.3-.19-.25-.03-.51,0-.76,0-.27,0-.55-.02-.82,0-.11,0-.21.11-.31.18.09.07.18.21.27.21.55.02,1.1.02,1.64,0Z"/>
      <path class="cls-1" d="m364.84,29.52c.02.32.03.57.05.85h1.29c-.19-.33-.34-.59-.53-.92-.26.02-.52.05-.81.07Z"/>
      <path class="cls-1" d="m361.15,37.52c-.09.1-.23.15-.34.22.05.07.11.19.16.19.19,0,.52-.01.54-.08.11-.54.52-.34.83-.38.21-.03.42-.04.64-.06,0-.07-.02-.13-.02-.2-.61.05-1.26-.32-1.8.3Z"/>
      <path class="cls-1" d="m343.69,27.07c.02-.07-.09-.25-.18-.28-.72-.23-1.05.03-1.03.79.49.13,1.09-.11,1.21-.51Z"/>
      <path class="cls-1" d="m333.94,20.43c-.29-.33-.47-.53-.64-.72-.03.05-.06.09-.09.14-.26.05-.52.12-.78.13-.34,0-.46.12-.33.46h1.84Z"/>
      <path class="cls-1" d="m349.13,19.3c0,.08,0,.16,0,.24.41.16.82.33,1.33.53v-.91c-.48.05-.9.09-1.32.14Z"/>
      <path class="cls-1" d="m365.85,17.9h-1.48c-.02.26-.03.49-.05.75h.78c.26-.26.46-.47.74-.75Z"/>
      <path class="cls-1" d="m344.61,19.29c-.04.73.18.83,1.53.62-.55-.38-.83-.99-1.53-.62Z"/>
      <path class="cls-1" d="m184.91,90.1c.01.21.02.43.03.69h1.33c-.33-.62-.68-.97-1.37-.69Z"/>
      <path class="cls-1" d="m30.03,59.39h1.87c-.53-.46-1.34-.45-1.87,0Z"/>
      <path class="cls-1" d="m270.08,80.26c.23.24.43.57.71.69.14.06.45-.26.67-.43.06-.05.1-.21.07-.25-.06-.08-.18-.14-.28-.15-.35-.02-.7,0-1.05,0-.04.05-.09.1-.13.15Z"/>
      <path class="cls-1" d="m347.39,43.3c.27-.05.51-.25.74-.41.06-.04.12-.17.1-.24-.02-.07-.13-.13-.21-.15-.15-.03-.31-.02-.49-.03-.14.01-.32-.02-.44.05-.09.06-.19.29-.15.36.11.17.32.43.44.41Z"/>
      <path class="cls-1" d="m325.36,13.31c.26,0,.53,0,.8,0v-.77c-.85-.16-.97-.04-.8.77Z"/>
      <path class="cls-1" d="m31.44,56.81c-.51,0-1.02,0-1.53,0-.05,0-.12.13-.14.21,0,.05.07.17.11.17.52,0,1.04,0,1.56-.02v-.37Z"/>
      <path class="cls-1" d="m32.53,61.74c-.41-.03-.82,0-1.23.04-.08,0-.16.12-.24.18.09.07.18.2.27.21.47.02.94,0,1.4,0,.05-.04.1-.09.15-.13-.12-.11-.23-.31-.35-.31Z"/>
      <path class="cls-1" d="m238.1,8.88c.14,0,.28.02.4-.02.1-.03.17-.15.25-.23-.07-.07-.15-.19-.23-.19-.43-.02-.86-.04-1.28-.01-.1,0-.19.2-.28.31.03.05.06.1.1.14.35,0,.69,0,1.04,0Z"/>
      <path class="cls-1" d="m358.08,42.37h1.79c-.04-.11-.04-.28-.13-.36-.17-.13-1.4.1-1.66.36Z"/>
      <path class="cls-1" d="m78.65,12.17c.09.07.17.21.26.21.32.03.65.01,1.05.01-.06-.34-.11-.59-.14-.76-.38.15-.65.25-.92.37-.09.04-.17.11-.26.17Z"/>
      <path class="cls-1" d="m313.69,9.15c-.28-.12-.55-.24-.8-.35-.38.12-.67.22-.96.31.3.1.6.26.9.27.29,0,.58-.15.86-.23Z"/>
      <path class="cls-1" d="m348.34,19.61c.12-.03.24-.1.36-.15-.01-.07-.02-.14-.03-.21-.42-.02-.85-.05-1.39-.08.05.34.08.55.11.75.14-.08.28-.19.43-.23.17-.05.35-.04.52-.07Z"/>
      <path class="cls-1" d="m339.78,52.18h2.14s0-.1,0-.15h-2.14s0,.1,0,.15Z"/>
      <path class="cls-1" d="m362.04,11.06c.02-.3.03-.56.05-.83h-.77c-.05.82-.02.86.72.83Z"/>
      <path class="cls-1" d="m46.33,26.05c.14.15.29.31.43.46.06.06.1.14.12.18.27-.12.49-.22.72-.32-.09-.16-.18-.44-.28-.44-.33-.02-.66.07-.99.12Z"/>
      <path class="cls-1" d="m47.61,26.37s0,0,0,0h0s.02,0,.03,0c0,0,0-.01,0-.02,0,0-.02,0-.02.01Z"/>
      <path class="cls-1" d="m352.83,37.15c-.12.84.12,1.26.69,1.26.28-.74-.26-.94-.69-1.26Z"/>
      <path class="cls-1" d="m89.63,9.65c.21-.09.37-.32.53-.51.02-.02-.08-.2-.13-.2-.21-.02-.47-.07-.62.02-.2.13-.32.39-.56.71.32,0,.58.07.78-.02Z"/>
      <path class="cls-1" d="m325.77,10.71h-.82c-.02.28-.03.5-.04.77.31-.02.54-.04.81-.06.02-.25.04-.47.05-.72Z"/>
      <path class="cls-1" d="m56.6,74.76c-.39-.04-.54.12-.43.5.21-.02.42-.02.62-.07.24-.05.47-.14.7-.21-.24-.07-.48-.15-.71-.21-.05-.02-.12,0-.18,0Z"/>
      <polygon class="cls-1" points="368.79 23.14 368.79 23.14 368.79 23.15 368.79 23.14"/>
      <path class="cls-1" d="m369.71,22.23c-.26.02-.52.05-.78.07-.05.31-.09.57-.14.83.43.07.98-.45.91-.9Z"/>
      <path class="cls-1" d="m336.48,40.19s.02.01.02.01c0,0,.01,0,.01-.01-.01,0-.02,0-.03,0Z"/>
      <path class="cls-1" d="m337.88,40.06s0-.16-.04-.2c-.24-.26-1.18,0-1.33.34.38,0,.76,0,1.13,0,.08,0,.18-.06.23-.12Z"/>
      <path class="cls-1" d="m293.09,80.53s0,.01,0,.02h0s0,0,.01,0c0,0,0,0,0-.01,0,0-.01,0-.02,0Z"/>
      <path class="cls-1" d="m291.74,80.18c0,.1,0,.2,0,.31.45.02.9.04,1.35.05-.05-.15-.1-.4-.16-.4-.39-.02-.79.02-1.19.04Z"/>
      <path class="cls-1" d="m344.12,33.31v-.17h-1.25c0,.07,0,.14,0,.21.42.16.83.19,1.24-.04Z"/>
      <path class="cls-1" d="m366.56,27.04c-.1-.08-.2-.15-.3-.23-.04.12-.14.27-.1.35.11.22.29.41.48.68.23-.18.33-.26.44-.34-.09-.09-.18-.18-.28-.27-.08-.07-.15-.13-.23-.19Z"/>
      <path class="cls-1" d="m349.52,27.38c.25.23.5.46.84.77.06-.33.11-.58.17-.88h-.87s-.09.07-.14.11Z"/>
      <path class="cls-1" d="m17.61,51.65c0,.07,0,.14,0,.2.43.02.85.05,1.39.08-.07-.22-.1-.45-.16-.46-.43-.04-.87-.09-1.24.18Z"/>
      <path class="cls-1" d="m84.66,7.9c.09-.01.16-.2.31-.41-.51,0-.88-.02-1.25.01-.09,0-.16.15-.24.23.08.07.16.18.24.19.31.02.63.02.93-.03Z"/>
      <path class="cls-1" d="m163.78,9.74c-.17,0-.31-.02-.44,0-.26.05-.51.13-.77.2.27.08.53.18.81.23.26.04.55.06.4-.43Z"/>
      <path class="cls-1" d="m355.8,16.89v-1.04c-.22.2-.32.31-.44.4-.11.08-.24.14-.36.21.03.62.43.47.8.44Z"/>
      <path class="cls-1" d="m354.99,16.45s0,0,0,0h0s-.01,0-.02,0h0s.01,0,.02,0Z"/>
      <path class="cls-1" d="m192.88,87.67c0-.11,0-.22,0-.33-.35,0-.7,0-1.06,0-.05,0-.13.12-.14.2,0,.05.08.16.12.16.36,0,.73-.02,1.09-.04Z"/>
      <path class="cls-1" d="m352.21,27.19s.08-.09.11-.13c-.11-.1-.21-.27-.35-.3-.22-.05-.47-.04-.7-.01-.1.01-.18.14-.27.22.09.08.18.21.27.22.31.03.62.01.93.01Z"/>
      <path class="cls-1" d="m349.37,10.17s.03.06.04.09c.2-.1.4-.2.6-.29-.21-.08-.41-.16-.62-.23-.05-.02-.12-.02-.18,0-.16.06-.32.13-.48.2.15.08.3.16.46.22.05.02.12,0,.18,0Z"/>
      <path class="cls-1" d="m346.83,25.96c-.11.04-.21.12-.31.18.11.07.22.16.34.21.09.03.19,0,.46,0,.05-.02.24-.11.43-.19-.21-.07-.42-.15-.63-.21-.09-.02-.2-.03-.29,0Z"/>
      <path class="cls-1" d="m344.47,51.58h-1.12c0,.07,0,.14,0,.21h1.12v-.21Z"/>
      <path class="cls-1" d="m63.28,78.64c.06.06.13.13.19.19.23-.1.47-.19.7-.29-.2-.23-.41-.46-.61-.68-.09.26-.19.52-.28.78Z"/>
      <path class="cls-1" d="m350.53,40c.17.1.34.21.57.34.25-.13.47-.24.68-.35-.21-.09-.42-.25-.63-.25-.21,0-.41.17-.62.26Z"/>
      <path class="cls-1" d="m196.87,10.67c-.09.03-.15.13-.22.21.08.08.16.22.25.23.31.03.62.01.98.01-.04-.43-.51-.61-1.01-.45Z"/>
      <path class="cls-1" d="m28.76,38.45s0,0,.01,0h0s0,0,0-.01c0,0-.01,0-.02,0,0,0,0,.01,0,.02Z"/>
      <path class="cls-1" d="m27.89,38.8c.17.16.36.32.58.42.06.03.28-.12.31-.21.04-.18,0-.37-.02-.56-.23,0-.47-.01-.69.04-.08.02-.2.29-.17.32Z"/>
      <path class="cls-1" d="m349.3,41.24c.26-.11.47-.2.68-.3-.21-.09-.41-.23-.62-.24-.19,0-.39.13-.59.21.17.11.34.21.53.33Z"/>
      <path class="cls-1" d="m343.34,58.97c.13.01.27.05.4.03.28-.06.56-.15.84-.23-.29-.07-.59-.16-.88-.18-.14,0-.29.14-.44.21.02.06.05.11.07.17Z"/>
      <path class="cls-1" d="m302.01,7.13c.07-.05.24-.17.41-.29-.19-.06-.38-.14-.58-.18-.11-.02-.24-.01-.35.02-.11.03-.21.11-.31.17.1.08.2.18.32.23.1.04.23.03.51.05Z"/>
      <path class="cls-1" d="m347.8,59.71c.06.08.11.19.19.23.1.04.23.02.42.03.1,0,.28,0,.44-.05.07-.02.12-.16.17-.24-.23-.06-.46-.15-.69-.15-.18,0-.36.12-.54.18Z"/>
      <path class="cls-1" d="m349.14,60.89c-.06.04-.03.21-.05.38.28-.02.51.02.66-.06.13-.07.2-.29.24-.45.02-.07-.14-.25-.15-.24-.24.11-.49.22-.7.37Z"/>
      <path class="cls-1" d="m73.53,14.55c0-.06,0-.12,0-.18h-1.11c0,.06,0,.12,0,.18h1.11Z"/>
      <path class="cls-1" d="m342.02,44.04s.11.16.18.16c.33.02.66,0,.99,0,0-.12,0-.23,0-.35-.33-.02-.66-.05-.99-.04-.07,0-.15.13-.19.22Z"/>
      <polygon class="cls-1" points="342.5 61.69 342.51 61.7 342.51 61.69 342.5 61.69"/>
      <path class="cls-1" d="m342.87,62.23c.17,0,.35-.02.52-.02.39,0,.48-.17.31-.49-.4,0-.79-.01-1.19-.02-.18.38-.02.54.36.53Z"/>
      <path class="cls-1" d="m343.71,61.72s-.02-.02-.02-.02c0,0,0,.01,0,.02,0,0,0,0,.01,0Z"/>
      <path class="cls-1" d="m367.18,20.4h.77v-.67c-.48.05-.81.37-.77.67Z"/>
      <path class="cls-1" d="m360.84,47.23c.19.09.38.17.63.29.2-.11.39-.23.58-.34-.2-.06-.4-.19-.6-.18-.21,0-.41.15-.61.23Z"/>
      <path class="cls-1" d="m366.63,16.64c-.85-.15-.92-.05-.68.67.24-.23.46-.45.68-.67Z"/>
      <path class="cls-1" d="m358.84,0c-.3.23-.51.4-.83.65.4.03.69.05,1.09.09-.11-.32-.19-.54-.26-.74Z"/>
      <path class="cls-1" d="m353.74,8.96c-.22.2-.42.43-.7.72h.99c0-.19.01-.37-.04-.53-.03-.09-.24-.21-.25-.19Z"/>
      <path class="cls-1" d="m347.72,40.94c-.05-.08-.3-.16-.37-.11-.19.13-.34.33-.6.61h.99c0-.2.05-.38-.02-.5Z"/>
      <path class="cls-1" d="m295.4,83.39c.34-.4.56-.66.86-1.02h-.95c.03.32.05.6.08,1.02Z"/>
      <path class="cls-1" d="m51.6,68.96c-.38.03-.76.05-1.14.08.74.35.97.31,1.14-.08Z"/>
      <path class="cls-1" d="m51.63,68.96s-.02-.02-.02-.02c0,0,0,.01-.01.02,0,0,.02,0,.03,0Z"/>
      <path class="cls-1" d="m89.92,79.82c0,.05,0,.11,0,.16h1.18c0-.05,0-.11,0-.16h-1.17Z"/>
      <path class="cls-1" d="m56.15,75.27s.01,0,.02,0c0,0,0,0,0,0,0,0,0,0,0-.02,0,0-.01,0-.02,0,0,0,0,0,0,.01Z"/>
      <path class="cls-1" d="m54.83,75.45c.24.13.47.17.7.16.25-.02.57.06.62-.33-.46-.06-.91-.09-1.32.17Z"/>
      <path class="cls-1" d="m285.24,79.98c0-.06,0-.12,0-.18h-1.12v.18h1.12Z"/>
      <path class="cls-1" d="m204.07,9.61c0-.06,0-.12,0-.18h-1.14c0,.06,0,.12,0,.18h1.14Z"/>
      <path class="cls-1" d="m234.24,9.96c-.18-.09-.36-.23-.55-.25-.12,0-.26.17-.4.26.14.09.28.18.46.29.19-.12.34-.21.48-.3Z"/>
      <path class="cls-1" d="m205.15,8.68c-.12-.11-.23-.22-.38-.35-.22.13-.37.22-.52.3.16.09.32.22.5.24.13.01.27-.12.41-.19Z"/>
      <path class="cls-1" d="m48.03,18.96c-.12-.1-.25-.2-.43-.35-.19.14-.32.24-.45.33.13.07.26.19.39.19.16,0,.32-.11.48-.17Z"/>
      <path class="cls-1" d="m141.36,81.7c.13.11.27.22.46.38.19-.16.32-.26.44-.36-.17-.08-.33-.2-.5-.21-.13-.01-.26.12-.4.19Z"/>
      <path class="cls-1" d="m165.14,83.53c.16.09.32.19.56.33.16-.15.29-.26.42-.38-.13-.08-.27-.23-.38-.21-.21.03-.4.16-.6.26Z"/>
      <path class="cls-1" d="m31.19,68.08s-.11.11-.1.17c0,.06.07.17.11.17.24,0,.48-.03.72-.05,0-.08,0-.17,0-.25-.24-.02-.48-.04-.73-.04Z"/>
      <path class="cls-1" d="m346.35,3.48c-.25-.03-.5-.01-.75.03-.04,0-.03.25-.05.39h.99c-.09-.2-.13-.42-.19-.42Z"/>
      <path class="cls-1" d="m140.43,6.57c-.31.11-.57.2-.84.3.13.07.25.19.39.21.24.03.61.15.45-.51Z"/>
      <path class="cls-1" d="m366.57,21.7l.18.27c.25-.11.5-.22.75-.33-.18-.07-.35-.19-.53-.19-.13,0-.26.16-.4.25Z"/>
      <path class="cls-1" d="m368.38,23.97c.01.08.26.12.5.23-.04-.45-.07-.75-.09-1.05-.49.09-.46.47-.41.82Z"/>
      <polygon class="cls-1" points="368.79 23.15 368.79 23.14 368.79 23.15 368.79 23.15"/>
      <path class="cls-1" d="m.91,37.61c-.26.01-.52.03-.78.05-.01,0-.02.03-.13.23.37,0,.63,0,.9-.01,0,0,0-.17.01-.27Z"/>
      <path class="cls-1" d="m347.54,16c-.08,0-.16.15-.24.23.07.07.14.19.22.19.24.02.49,0,.74,0,0-.54-.4-.43-.72-.43Z"/>
      <path class="cls-1" d="m348.26,16.45s.01,0,.02,0c0,0,0-.01,0-.02,0,0-.01,0-.02,0,0,0,0,0,0,.02,0,0,0,0,0,0Z"/>
      <path class="cls-1" d="m331.64,20.25c-.19-.08-.37-.21-.57-.23-.11-.01-.24.15-.36.23.12.09.23.18.38.3.21-.12.38-.22.54-.31Z"/>
      <path class="cls-1" d="m33.26,36.68s0,.01,0,.02h0s.01,0,.02,0c0,0,0,0,0-.01,0,0-.01,0-.02,0Z"/>
      <path class="cls-1" d="m32.43,36.27s-.09.14-.08.19c.03.07.1.17.17.18.24.03.49.03.74.04-.04-.15-.07-.39-.15-.41-.21-.06-.46-.02-.69,0Z"/>
      <path class="cls-1" d="m138.14,81.44c.16.21.26.35.37.5.08-.16.23-.33.24-.49,0-.14-.15-.28-.23-.42-.11.12-.21.24-.37.42Z"/>
      <path class="cls-1" d="m360.79,6.05c-.19.15-.33.26-.46.37.12.08.25.22.37.21.18-.01.35-.13.52-.2-.12-.11-.24-.21-.43-.38Z"/>
      <path class="cls-1" d="m324.07,12.77c.24.02.48.05.72.06.03,0,.05-.16.08-.24-.24-.04-.49-.08-.73-.12-.02.1-.04.2-.06.3Z"/>
      <path class="cls-1" d="m322.55,12.88c.19-.03.37-.15.56-.23-.13-.08-.26-.16-.45-.28-.15.11-.29.2-.42.3.11.08.23.23.32.21Z"/>
      <path class="cls-1" d="m24.67,44.8c-.26.03-.51.06-.77.09,0,0,0,.03-.05.24.32-.02.58-.04.85-.06-.01-.09-.02-.18-.03-.27Z"/>
      <path class="cls-1" d="m341.13,58.13c.26-.01.52-.02.78-.03,0-.09,0-.18-.01-.28-.26.01-.52.03-.78.04,0,.09,0,.18.01.27Z"/>
      <path class="cls-1" d="m352.29,34.43c-.17.04-.32.17-.48.25.27.09.54.18.82.27.16-.5-.03-.59-.34-.52Z"/>
      <path class="cls-1" d="m.07,45.43c.14.09.28.18.48.31.17-.13.29-.23.42-.32-.11-.07-.23-.22-.32-.21-.2.03-.39.14-.58.22Z"/>
      <path class="cls-1" d="m.13,52.7q.81.09.77-.37c-.82-.08-.84-.07-.77.37Z"/>
      <path class="cls-1" d="m53.03,21.65c-.12-.09-.23-.18-.39-.31-.21.12-.37.22-.53.32.17.08.33.22.5.23.14,0,.28-.15.42-.23Z"/>
      <path class="cls-1" d="m29.25,45.46c-.12-.08-.24-.23-.36-.23-.18,0-.36.11-.54.18.12.11.24.21.39.36.22-.13.36-.22.51-.3Z"/>
      <path class="cls-1" d="m345.52,33.95s-.02-.02-.02-.02c0,0,0,.01,0,.02,0,0,.01,0,.02,0Z"/>
      <path class="cls-1" d="m344.63,34.17c-.01.07.06.18.12.22.37.2.71-.02.74-.44-.23.02-.45.02-.67.06-.07.01-.18.1-.19.16Z"/>
      <path class="cls-1" d="m272.36,80.67c.21-.14.36-.24.51-.35-.2-.09-.39-.23-.6-.25-.13-.01-.27.16-.4.25.15.1.29.21.49.35Z"/>
      <path class="cls-1" d="m346.91,10.24s-.04.25-.06.4h.95c-.04-.17-.05-.41-.1-.41-.26-.03-.53-.02-.79.01Z"/>
      <path class="cls-1" d="m341.04,34.51c.17-.13.3-.23.43-.33-.16-.07-.32-.19-.47-.19-.15,0-.3.13-.45.21.14.09.29.18.49.31Z"/>
      <path class="cls-1" d="m138.68,7.55h-.33v.81c.11-.01.31-.01.31-.03.02-.26.01-.52.01-.78Z"/>
      <path class="cls-1" d="m352.26,7.47c-.28-.04-.59-.02-.34.53.26-.09.53-.18.8-.28-.15-.09-.3-.23-.46-.25Z"/>
      <path class="cls-1" d="m366.94,19.24c.06-.09.11-.18.17-.28-.14-.09-.28-.25-.42-.25-.18,0-.35.14-.52.22.26.1.51.2.77.3Z"/>
      <path class="cls-1" d="m332,30.21c-.04-.08-.06-.22-.11-.23-.19-.03-.41-.07-.56,0-.08.04-.07.28-.09.45.11-.01.22,0,.33-.04.15-.04.29-.12.43-.18Z"/>
      <path class="cls-1" d="m331.24,30.43s-.01,0-.02,0c0,0,0,0,0,0v.02s.01,0,.02,0c0,0,0-.01,0-.02Z"/>
      <path class="cls-1" d="m360.27,38.23c-.1-.09-.19-.18-.34-.31-.17.13-.28.22-.39.31.1.06.21.17.31.16.15-.01.28-.11.43-.17Z"/>
      <path class="cls-1" d="m204.7,12.68c.12.08.25.17.41.28.15-.11.26-.18.37-.26-.13-.07-.25-.21-.38-.21-.13,0-.26.12-.4.19Z"/>
      <path class="cls-1" d="m297.11,80.82c.16.1.32.2.53.35.14-.15.24-.26.34-.36-.14-.08-.28-.24-.4-.24-.16.01-.31.16-.47.25Z"/>
      <path class="cls-1" d="m74.85,12.98c-.22,0-.44,0-.66.01-.02,0-.01.2-.02.3h.68c0-.1,0-.21,0-.31Z"/>
      <path class="cls-1" d="m362.12,18.49c-.14-.08-.27-.23-.41-.23-.14,0-.29.14-.43.21.13.1.26.2.43.32.18-.13.3-.22.42-.3Z"/>
      <path class="cls-1" d="m47.05,20.86c0-.1,0-.21,0-.31-.24.01-.48.02-.71.03,0,.09,0,.26.02.26.23.02.46.01.69.01Z"/>
      <path class="cls-1" d="m355.04,49.45c.12.08.24.17.4.28.15-.11.25-.18.36-.26-.12-.08-.24-.21-.36-.21-.13,0-.26.12-.39.19Z"/>
      <path class="cls-1" d="m15.25,46.71c-.14-.07-.28-.19-.42-.19-.12,0-.25.14-.37.22.1.09.19.17.34.31.18-.13.31-.23.45-.33Z"/>
      <path class="cls-1" d="m7.75,46.74c.15.08.31.22.45.21.13,0,.25-.18.37-.29-.05-.08-.1-.16-.15-.24-.22.1-.45.21-.67.31Z"/>
      <path class="cls-1" d="m286.46,83.84c.26-.13.47-.24.69-.35-.13-.07-.25-.19-.38-.21-.29-.05-.51.01-.31.56Z"/>
      <path class="cls-1" d="m247.8,84.35c.11.08.22.16.37.26.15-.1.26-.18.37-.26-.11-.07-.22-.2-.33-.2-.14,0-.27.12-.4.19Z"/>
      <path class="cls-1" d="m19.75,40.48c-.11-.09-.22-.19-.37-.31-.16.12-.27.2-.38.28.13.07.26.19.39.2.11,0,.24-.11.35-.17Z"/>
      <path class="cls-1" d="m359.53,39.53c.1.08.2.16.35.27.16-.13.27-.22.39-.31-.12-.06-.25-.17-.36-.17-.13,0-.25.13-.37.2Z"/>
      <path class="cls-1" d="m330.15,22.67c-.24.08-.48.17-.72.26.14.09.26.23.41.26.3.06.51-.03.31-.51Z"/>
      <path class="cls-1" d="m353.59,25.21c-.13-.07-.26-.21-.38-.21-.15,0-.3.12-.46.19.11.09.22.19.38.33.18-.13.32-.22.46-.32Z"/>
      <path class="cls-1" d="m349.1,34.6c-.05-.07-.09-.13-.14-.2-.23.08-.46.16-.68.24.16.09.32.23.49.24.1,0,.22-.18.33-.28Z"/>
      <path class="cls-1" d="m60.16,75.6s-.02-.02-.02-.02c0,0,0,.01,0,.02,0,0,.01,0,.02,0Z"/>
      <path class="cls-1" d="m59.33,75.77c.05.09.11.25.15.25.21-.03.42-.08.62-.16.04-.02.03-.16.04-.26-.11,0-.23-.03-.33,0-.17.04-.32.11-.48.17Z"/>
      <path class="cls-1" d="m180.15,81.53c-.08.01-.2.2-.18.27.03.09.18.2.28.2.35,0,.69-.04,1.02-.07q.13-.84-.62-.86c-.09,0-.18-.01-.27-.02.12.25.12.43-.23.47Z"/>
      <path class="cls-1" d="m180.38,81.05s0-.01,0-.02c0,0,0,0,0,0,0,0,0,0-.01,0,0,0,0,0,0,.01,0,0,.02,0,.03,0Z"/>
    </g>
  </g>
</svg>