<?xml version="1.0" encoding="UTF-8"?>
<svg id="Calque_2" data-name="Calque 2" xmlns="http://www.w3.org/2000/svg" viewBox="0 0 36.79 32.65">
  <defs>
    <style>
      .cls-1 {
        fill: #dcdabe;
      }
    </style>
  </defs>
  <g id="Maquette">
    <path class="cls-1" d="m28.38,18.73c1.88-3.61,3.71-7.24,5.62-10.84.2-.38.86-.88,1.14-.8.57.17,1.37.64,1.47,1.11.22,1.07.23,2.25.06,3.34-.99,6.28-2.09,12.54-3.08,18.82-.3,1.92-1.01,2.61-2.89,2.17-4.31-1.03-8.62-2.08-12.91-3.23-5.49-1.47-10.95-3.05-16.42-4.57-.9-.25-1.61-.71-1.3-1.72.32-1.04.86-2.02,1.3-3.02,2-4.58,4.04-9.15,5.99-13.76.66-1.56,1.03-3.26,1.69-4.82.24-.57.95-.93,1.45-1.39.4.55.95,1.05,1.14,1.66.19.6.08,1.33,0,1.99-.54,3.84-1.12,7.68-1.67,11.52-.05.36,0,.73,0,1.4.59-.55.93-.85,1.25-1.17,3.42-3.6,6.83-7.19,10.24-10.8,1.53-1.62,2.26-1.58,2.95.55.75,2.29,1.19,4.69,1.63,7.06.47,2.51.77,5.06,1.21,8.03.56-.74.91-1.1,1.14-1.52Zm2.19,1.38c-.76,1.57-1.31,3.24-2.1,4.8-.26.5-1.04,1.16-1.44,1.08-.63-.14-1.52-.76-1.64-1.31-.47-2.21-.73-4.46-1-6.71-.31-2.56-.52-5.13-.82-7.69-.08-.69-.35-1.37-.65-2.5-1.42,1.46-2.56,2.67-3.74,3.85-2.66,2.67-5.33,5.33-8.01,7.99-.29.29-.64.54-1,.74-1.35.75-2.33.23-2.21-1.3.21-2.58.59-5.14.89-7.7.06-.53.05-1.06-.27-1.65-1.53,3.49-3.08,6.96-4.54,10.48-.11.27.33,1.05.67,1.18,4.27,1.54,8.54,3.11,12.88,4.46,3.45,1.08,6.99,1.88,10.49,2.8.2.05.41.08.61.14,2.88.8,2.92.81,3.49-2.25.73-3.97,1.4-7.95,2.09-11.93.05-.27,0-.55,0-.82-.11-.03-.22-.07-.33-.1-1.12,2.15-2.3,4.29-3.36,6.47Z"/>
  </g>
</svg>