<?xml version="1.0" encoding="UTF-8"?>
<svg id="Calque_2" data-name="Calque 2" xmlns="http://www.w3.org/2000/svg" viewBox="0 0 91.86 65.95">
  <defs>
    <style>
      .cls-1 {
        fill: #dcdabe;
      }
    </style>
  </defs>
  <g id="Maquette">
    <g>
      <path class="cls-1" d="m79.3,65.95c-.53-1.16-1-2.35-1.61-3.47-.32-.59-.79-1.41-1.32-1.54-2.3-.53-4.66-.84-7.14-1.26,0,1.92,0,3.62,0,5.47-1.37-.29-2.09-1.22-2.09-2.32,0-3.44.22-6.87.36-10.48,2.43.75,2.22,2.45,1.89,3.88-.65,2.89.29,2.45,2.29,2.55,1.6.08,3.2.31,4.76.63,1.04.21,1.47-.12,1.55-1.09.13-1.64.25-3.29.37-4.93l.55-.21c.34.76.95,1.52.97,2.29.04,2.2-.22,4.4-.27,6.6-.02,1.2.16,2.41.25,3.62-.19.08-.37.16-.56.24Z"/>
      <path class="cls-1" d="m71.12,14.59c1.09-1.3,2.07-2.47,3.05-3.63.18.13.35.26.53.39-.48.67-.97,1.33-1.45,2-1.21,1.69-1.16,1.97.54,3.04.85.53,1.73,1.03,2.67,1.58,1.05-1.31,2.05-2.55,3.05-3.79.14.1.28.19.43.29-.63,1.31-1.26,2.61-1.97,4.07,1.39.76,2.78,1.53,4.24,2.33.95-1.1,1.9-2.19,2.84-3.28.16.09.33.18.49.27-.54,1.32-1.08,2.64-1.54,3.76,2.55,2.41,5.03,4.76,7.87,7.44-3.7,1.52-6.89,2.84-9.92,4.09,0,1.86,0,3.48,0,5.29-1.82-1.35-.73-3.13-.88-4.82-1.19.43-2.22.8-3.11,1.12-.11,1.7-.21,3.19-.31,4.69l-.68.02c-.08-1.39-.16-2.78-.24-4.17-3.02.69-3.09.16-3.22,5.71-.17.03-.34.05-.51.08-.18-1.35-.36-2.69-.55-4.16-1.14-.47-3.07-.13-3.26.83-.27,1.33-.31,2.7-.44,4.06-.16.02-.31.03-.47.05-.16-1.32-.32-2.64-.53-4.34-1.16.4-2.76.49-3.47,1.33-.7.83-.52,2.42-1.16,3.69,0-1.16,0-2.32,0-3.93-1.57.43-3.39.4-4.07,1.26-.71.9-.31,2.66-.4,4.05-.2.02-.4.04-.61.06-.13-1.35-.27-2.7-.43-4.41-1.42.35-3.24.28-4.06,1.16-.84.9-.69,2.72-1.04,4.47-2.29-1.69.36-3.09-.64-4.74-1.2.11-2.72.19-4.2.45-.32.06-.67.73-.76,1.18-.15.78-.1,1.6-.14,2.41l-.58.02c-.06-1.02-.12-2.04-.19-3.35-1.44,0-2.97-.08-4.48.05-.38.03-.85.67-1.03,1.12-.34.89-.51,1.85-.74,2.79-.24-.05-.47-.1-.71-.15.21-1.19.43-2.38.7-3.87-1.17-.34-2.44-.7-3.98-1.15-.2,1.48-.37,2.78-.54,4.09-.16,0-.31.02-.47.03-.08-1.33-.15-2.67-.24-4.29-.54-.23-1.38-.6-2.46-1.07-.08,1.33-.15,2.57-.22,3.81-.16.05-.31.09-.47.14.1-2.61.79-5.6-3.34-5.56-.14,1.31-.29,2.7-.43,4.09-.15,0-.3,0-.46,0,0-.51-.05-1.02,0-1.52.38-3.22.04-3.77-3.63-5.49-.26,1.61-.5,3.16-.75,4.7-.18-.02-.37-.03-.55-.05.11-1.08-.01-2.26.39-3.21.72-1.72.01-2.64-1.33-3.44-.4-.24-.8-.5-1.36-.85-.61,1.42-1.19,2.77-1.77,4.11-.17-.07-.35-.14-.52-.21.38-1,.73-2.01,1.17-2.98.36-.8.29-1.27-.59-1.68-1.01-.47-1.92-1.16-2.97-1.81-.99,2.08-1.94,4.07-2.88,6.06-.18-.08-.36-.16-.55-.24.89-2.02,1.78-4.05,2.75-6.24-.92-.66-1.91-1.36-3.06-2.19-.68,1.52-1.27,2.84-1.86,4.16-.16-.06-.32-.13-.48-.19.53-1.38,1.06-2.76,1.66-4.35-.93-.71-1.94-1.49-3.09-2.38-.97,1.21-1.86,2.33-2.75,3.45-.15-.11-.3-.22-.45-.33.78-1.2,1.55-2.4,2.45-3.77-.57-.5-1.22-1.06-1.93-1.67-1.08,1.14-2.1,2.21-3.1,3.27-.2-1.45.24-2.21,2.26-3.79-1.12-1.27-2.28-2.51-3.35-3.83-1.35-1.67-1.04-2.94,1-3.68,2.67-.97,5.4-1.79,8.11-2.67-.3-1.45-.55-2.72-.81-3.99.16-.05.32-.09.48-.14.46,1.18.91,2.36,1.42,3.67,1.08-.28,2.08-.54,3.06-.8-.16-1.75-.31-3.39-.46-5.03.21-.02.41-.03.62-.05.11.96.22,1.92.33,2.88.15,1.31.62,2.02,2.1,1.32.79-.38,1.66-.56,2.48-.82V2.81c.11,0,.21-.01.32-.02.15,1.41.3,2.83.48,4.43,1.56-.34,2.88-.63,4.16-.91V2.2l.36-.03c.12,1.32.25,2.63.39,4.12,1.42-.22,2.75-.43,4.18-.65,0-1.47,0-2.88,0-4.28.13-.02.26-.03.4-.05.18,1.39.36,2.79.55,4.32,1.27-.14,2.37-.25,3.6-.39.27-1.76.53-3.5.79-5.24.2.02.4.03.6.05-.09.79-.25,1.58-.24,2.36.02.79.03,2.16.37,2.27,1.03.33,2.23.25,3.34.15.24-.02.45-.75.62-1.18.4-1.02.77-2.05,1.16-3.07.21.06.42.12.62.18-.36,1.41-.72,2.81-1.12,4.37,1.55.28,3.09.56,4.59.83.31-1.88.61-3.72.92-5.56l.58.03c0,.88.05,1.77-.01,2.65-.07,1.01-.22,2.01-.37,3.26,1.61.29,3.2.58,4.77.87.71-1.97,1.35-3.78,2-5.58.19.05.38.1.58.15-.41,1.83-.82,3.67-1.27,5.7,1.62.35,3.35.73,5.26,1.14.66-1.66,1.31-3.31,1.97-4.96.18.06.35.11.53.17-.42,1.61-.84,3.21-1.32,5.05,1.49.09,2.69,2.07,4.2.55,1-1,1.56-2.45,2.73-3.56-.55,1.59-1.1,3.18-1.65,4.74,3.71,3.16,4.07-1.11,5.97-2.36-.37.96-.65,1.96-1.13,2.86-.61,1.15-.48,1.86.81,2.33.78.29,1.48.76,2.23,1.16Zm-26.96-6.21c6.03,2.54,11.86,5.6,13.82,12.18,1.9,6.38.52,12.58-4.79,18.02,12.4-2.08,24.16-4.47,34.86-10.91-6.44-5.81-14.19-9.01-21.43-13.02-5.11-2.84-10.83-4.26-16.58-5.34-1.95-.37-3.92-.62-5.88-.93ZM2.52,15.11c6.1,8.18,14.29,12.98,22.78,17.96-5.71-9.83.79-23.56,9.27-25.97-11.25-.21-21.18,4.79-32.05,8.01Zm39.31,22.67c1.81-.32,4.47-.62,7.05-1.28,3.71-.94,6.55-2.7,7.03-7.15.56-5.11-3.24-12.31-8.01-14.28-2.95-1.22-6.01-2.22-8.8-3.73-2.69-1.45-4.85-.68-7.08.7-4.16,2.58-5.86,6.74-7.01,11.2-.81,3.14-.26,6.12,1.97,8.5,3.75,4,8.43,6.08,14.84,6.03Z"/>
      <path class="cls-1" d="m9.55,61.51c-2.6,2.83-4.12,2.49-5.18-.94-.69-2.21-1.25-4.46-1.8-6.71-.41-1.67.16-2.94,1.33-2.99,1.65-.07,1.85,1.16,2.02,2.4.23,1.63.5,3.26.74,4.79.37.09.51.17.58.13,2.9-1.68,2.94-1.7,4.7,1.24.79,1.33,1.37.99,2.09,0,1.3-1.78,2.58-3.58,3.96-5.3.62-.77,1.56-1.76,2.54-.85.87.81.45,1.94-.32,2.89-1.82,2.28-3.58,4.62-5.35,6.94-1.32,1.74-2.28,1.79-3.71.16-.5-.57-1.02-1.11-1.61-1.77Z"/>
      <path class="cls-1" d="m31.43,64.16c-.34-.72-.86-1.41-.99-2.17-.24-1.44-1.22-1.59-2.37-1.89-2.23-.58-3.69.07-4.53,2.22-.16.4-.6.7-.95,1.09-1.35-.75-1.21-1.66-.59-2.71,1.54-2.6,2.99-5.25,4.63-7.79.45-.71,1.45-1.56,2.12-1.5.63.06,1.42,1.14,1.67,1.93.86,2.7,1.58,5.46,2.19,8.22.17.78-.2,1.69-.32,2.53-.29.02-.58.04-.87.05Zm-4.92-6.9c1.12-.15,2.17-.07,2.27-.34.22-.6-.03-1.38-.09-2.08-.19-.02-.38-.04-.57-.06-.42.66-.85,1.31-1.6,2.49Z"/>
      <path class="cls-1" d="m63,55.4c-2.2.5-4.27.75-6.18,1.45-1.81.67-2.92,2.17-3.17,4.2-.18,1.46.58,2.2,1.85,2.32,1.16.11,2.38.04,3.53-.19,1.32-.27,2.19.08,2.9,1.48-1.69.83-3.45.45-5.14.5-.23,0-.46-.1-.7-.15-2.07-.43-4.22-.83-4.79-3.32-.5-2.19,1.08-5.39,3.26-6.71,1.89-1.14,3.86-2.16,6.19-1.54,1.11.29,2.13.76,2.24,1.95Z"/>
      <path class="cls-1" d="m41.7,53.99c-2.39-1.05-4.87-.82-6.67-2.31.05-.23.11-.47.16-.7.73.11,1.51.1,2.19.36,4.52,1.73,9.71.52,14.12,2.7l-.14.81c-1.84-.22-3.7-.39-5.52-.69-1.08-.18-1.6-.01-1.88,1.19-.57,2.36-1.37,4.66-2.04,7-.22.76-.21,1.63-1.43,1.13-.94-.38-1.51-.79-1.1-1.98.84-2.46,1.55-4.97,2.32-7.51Z"/>
      <path class="cls-1" d="m29.69,25.75c-.15-2.18.64-4.35,2.17-6.32,3.37-4.34,9.35-3.97,12.99-1.82,2.49,1.47,5.05,2.93,6.24,5.9,1.58,3.94-.4,10.53-4.12,12.51-1.11.59-2.67.51-4.01.43-3.17-.2-6.38-.18-9.15-2.24-3.61-2.68-4.22-4.93-4.13-8.46Z"/>
    </g>
  </g>
</svg>