<?xml version="1.0" encoding="UTF-8"?>
<svg id="Calque_2" data-name="Calque 2" xmlns="http://www.w3.org/2000/svg" viewBox="0 0 37.2 36.38">
  <defs>
    <style>
      .cls-1 {
        fill: #dcdabe;
      }
    </style>
  </defs>
  <g id="Maquette">
    <g>
      <path class="cls-1" d="m34.6,31.27c.77.08,1.5.16,2.6.27-1.9,1.5-3.34,2.61-5.66,2.5-2.57-.12-5.17.48-7.75.84-3.07.43-6.13,1.01-9.21,1.38-1.6.19-3.24.07-4.79.09-1.15-6.21-1.96-12.17-6.21-16.87-1.04-1.15-1.83-2.52-2.85-3.68C0,15-.21,14.21.22,13.25c.98-2.17,1.94-4.36,2.99-6.5,1.11-2.28,3.16-2.98,5.51-3.38,5.21-.9,10.39-1.98,15.58-2.97.77-.15,1.53-.33,2.3-.38.39-.03.94.06,1.18.31,2.4,2.45,4.78,4.91,7.07,7.45.4.44.64,1.33.5,1.9-.76,3.23-1.68,6.42-2.51,9.63-.16.61-.3,1.29-.2,1.89.61,3.38,1.29,6.75,1.94,10.09ZM1.48,14.62c1.69,2.27,3.35,4.54,5.06,6.78.23.3.71.66,1.03.62,1.51-.19,2.99-.54,4.49-.79,3.14-.51,6.29-1.01,9.43-1.48,1.52-.23,3.05-.51,4.59-.56,1.72-.05,3.45-1.66,5.28.29.94-3.29,1.83-6.31,2.62-9.35.12-.46-.12-1.19-.45-1.55-1.99-2.15-4.06-4.23-5.94-6.16-1.7.21-3.23.31-4.73.59-5.09.95-10.15,2.03-15.25,2.88-1.45.24-2.31.85-2.9,2.08-1.08,2.23-2.17,4.46-3.24,6.64Zm22.73,12.77s.06-.01.09-.02c.16.81.27,1.64.5,2.44.08.28.44.48.68.72.21-.26.62-.55.59-.79-.16-1.71-.38-3.41-.68-5.1-.05-.27-.66-.64-.95-.59-.28.05-.68.59-.67.89.04.82.28,1.64.44,2.45Zm-9.22-2.02c-.21.1-.41.19-.62.29.24,1.84.46,3.68.76,5.5.04.25.51.42.78.63.19-.28.56-.57.54-.83-.12-1.49-.28-2.98-.56-4.45-.08-.42-.59-.76-.9-1.14Zm4.8-.73c.19,2.01.33,3.75.54,5.48.16,1.32.84,1.14,1.55.62-.22-1.15-.35-2.19-.64-3.19-.28-.95.14-2.24-1.44-2.91Zm8.18-.99c-.24,2.42.57,4.41.86,6.69,1.13-1.08.53-5.24-.86-6.69Zm-18.58,3.4l.96,4.94c.93-2.93.49-4.56-.96-4.94Zm22.76,2.7c.2-.05.39-.1.59-.15-.24-2.1-.49-4.21-1.3-6.19-.17.03-.34.07-.51.1l1.22,6.23Z"/>
      <path class="cls-1" d="m26.31,14.63c-.73-.53-1.43-1.08-2.17-1.57-1.55-1.04-1.78-1.78-.77-3.29.73-1.09,1.64-2.06,2.55-3.19,1.09.89,2.19,1.64,3.08,2.59.33.35.43,1.33.17,1.73-.81,1.28-1.84,2.43-2.86,3.73Z"/>
      <path class="cls-1" d="m12.52,17.89c-1.45-1.06-2.71-1.83-3.75-2.83-.4-.39-.59-1.42-.38-1.96,1.36-3.51,1.44-3.43,4.77-1.67,1.43.75,1.43,1.53.88,2.74-.5,1.09-.91,2.23-1.52,3.72Z"/>
    </g>
  </g>
</svg>