<?xml version="1.0" encoding="UTF-8"?>
<svg id="Calque_2" data-name="Calque 2" xmlns="http://www.w3.org/2000/svg" viewBox="0 0 39.5 36.68">
  <defs>
    <style>
      .cls-1 {
        fill: #dcdabe;
      }
    </style>
  </defs>
  <g id="Maquette">
    <g>
      <path class="cls-1" d="m28.69,18.55c-.05,2.08-.75,3.38-2.05,4.21-1.63,1.04-3.37,1.91-5.09,2.8-1.5.77-2.96.45-4.2-.54-1.81-1.45-3.38-3.16-4.71-5.07-.46-.67-.32-1.25-.02-1.86.84-1.74,1.63-3.51,2.59-5.19.83-1.45,2.16-2.29,3.87-2.4,1.6-.11,3.19-.2,4.79-.31,1.15-.08,1.9.56,2.39,1.46.6,1.09,1.13,2.23,1.53,3.41.44,1.29.69,2.64.9,3.5Zm-7.47-7.37c-.87.07-1.75.07-2.61.23-.43.08-.96.34-1.19.69-.96,1.45-1.9,2.93-2.69,4.47-.38.74-.6,1.65-.06,2.51,1.18,1.9,2.65,3.52,4.55,4.69.78.48,1.67.78,2.58.36,1.55-.71,3.09-1.46,4.61-2.23,1.01-.51,1.31-1.48,1.03-2.46-.54-1.88-1.16-3.74-1.92-5.54-.78-1.82-2.13-2.99-4.3-2.73Z"/>
      <path class="cls-1" d="m38.18,17.93c-1.92-.29-3.84-.59-5.77-.85-.58-.08-1.2-.12-1.76-.02-.6.11-1.12-.01-1.26-.54-.14-.55-.12-1.22.09-1.74.21-.54.73-.76,1.42-.55,1.56.49,3.12.97,4.71,1.3.86.18,1.79-.02,2.68.06.99.09,1.25.44,1.21,1.34-.03.74-.2.85-1.32.97Z"/>
      <path class="cls-1" d="m18.83,35.68c0-2.4,0-4.8,0-7.21,0-.82.41-1.37,1.11-1.43.72-.06,1.54.53,1.52,1.28-.04,1.29-.25,2.58-.36,3.87-.09,1.11-.14,2.22-.22,3.33-.03.33-.05.88-.21.94-.49.18-1.07.27-1.59.19-.23-.04-.38-.57-.57-.87.11-.03.22-.06.33-.09Z"/>
      <path class="cls-1" d="m36,4.83c-2.82,1.94-5.55,3.82-8.27,5.69-.77-.4-1.03-1.01-.9-1.73.06-.31.36-.65.64-.83.63-.4,1.34-.68,1.98-1.07,1.08-.66,2.14-1.37,3.19-2.07.42-.28.84-.58,1.2-.94.93-.95,1.5-.86,2.02.38.07.18.09.38.14.57Z"/>
      <path class="cls-1" d="m17.14,9.63c-.13-.42-.3-.76-.34-1.11-.25-2.04-.47-4.09-.7-6.14-.05-.42-.14-.84-.16-1.26-.05-.7.37-1.05,1.01-1.12.65-.07,1.18.16,1.31.89.07.41.16.85.12,1.26-.19,1.88.09,3.69.7,5.47.22.64,0,1.19-.61,1.5-.39.2-.83.32-1.32.5Z"/>
      <path class="cls-1" d="m31.3,33.17c-.18.21-.42.55-.73.8-.34.29-.69.29-1-.14-1.72-2.41-3.45-4.81-5.2-7.19-.51-.7-.11-1.02.42-1.32.64-.37,1.16-.19,1.48.37,1.19,2.07,2.37,4.14,3.62,6.17.29.47.82.78,1.4,1.3Z"/>
      <path class="cls-1" d="m4.73,6.91c.29.19.51.31.71.47,1.29,1,2.55,2.05,3.88,2.99.74.52,1.6.87,2.38,1.33.29.17.76.49.73.66-.08.41-.33.87-.66,1.12-.17.13-.71-.04-.97-.22-1.57-1.09-3.13-2.2-4.66-3.34-.65-.49-1.26-1.04-1.85-1.61-.15-.14-.21-.51-.14-.71.1-.26.37-.45.58-.68Z"/>
      <path class="cls-1" d="m0,21.32c1.46-.16,2.85-.31,4.25-.47,1.71-.2,3.42-.41,5.13-.61.22-.03.51-.08.66.02.24.18.51.46.54.73.02.16-.35.51-.58.55-1.28.21-2.57.33-3.85.51-1.39.19-2.79.39-4.17.64-1.02.18-1.86-.39-1.98-1.37Z"/>
      <path class="cls-1" d="m38.27,26.33c.02,1.01-.56,1.41-1.46.94-2.04-1.07-4.09-2.14-6.12-3.23-.27-.14-.48-.39-.74-.56-.34-.22-.62-.45-.26-.86.31-.35.66-.68,1.15-.34.51.35.97.78,1.5,1.11,1.51.92,3.03,1.82,4.59,2.68.38.21.88.19,1.35.28Z"/>
      <path class="cls-1" d="m9.37,33.58c1.45-2.62,2.88-5.18,4.28-7.75.21-.39.45-.67.82-.37.21.17.4.68.3.89-.67,1.3-1.42,2.56-2.14,3.84-.58,1.02-1.2,2.03-1.7,3.09-.4.85-.72.96-1.57.31Z"/>
      <path class="cls-1" d="m22.81,7.45c-.68-.14-.9-.43-.7-.95.68-1.78,1.36-3.56,2.11-5.31.1-.22.65-.41.95-.35.53.09.32.49.2.86-.57,1.69-1.08,3.4-1.68,5.07-.11.3-.58.46-.88.69Z"/>
    </g>
  </g>
</svg>