<?xml version="1.0" encoding="UTF-8"?>
<svg id="Calque_2" data-name="Calque 2" xmlns="http://www.w3.org/2000/svg" viewBox="0 0 333 19.35">
  <defs>
    <style>
      .cls-1 {
        fill: #4d480e;
      }
    </style>
  </defs>
  <g id="Maquette">
    <g>
      <path class="cls-1" d="m280.93,12.12c1.58,1.6,1.52,1.66,2.54-.92-2.15-.18-4.26-.36-6.38-.54.03-.28.05-.56.08-.84.55-.03,1.1-.06,1.78-.1-1.9-.48-3.98-.45-5.25-1.44-2.61-2.05-7.31-2.74-9.72-.83-1.42,1.13-1.9,1.05-3.27-.48-.19-.21-.54-.34-.83-.4-2.46-.51-4.92-1.01-7.39-1.47-1.85-.34-3.56-.37-3.14,1.85-12.04-1.62-23.97-3.24-35.9-4.85-.63,2.11-5.35,1.98-8.57-.3-2.04,1.89-4.37,1.76-6.81.78-.57-.23-1.24-.27-1.87-.31-2.39-.17-4.79-.53-7.16-.38-2.58.16-5.78-2.41-7.7,1.48-.13.26-1,.3-1.48.2-2.24-.42-4.45-1.05-6.71-1.37-4.48-.63-8.98-1.16-13.49-1.56-.88-.08-1.83.64-2.65.96-3.06-.44-6.34-.91-10.15-1.45.84,1.18,1.23,1.73,1.69,2.38-2.7.16-5.64,1.2-7.59.24-3.06-1.51-5.98-.78-8.93-.97-.81-.05-1.68,1.21-2.54,1.24-.74.03-1.55-.79-2.25-1.33-1.25-.96-2.54.05-3.77-.16-2.03-.33-4.03-1.03-6.07-1.11-3.79-.15-7.59,0-11.39.09-7.96.21-15.93.56-23.89.66-3.38.05-6.9-1.05-10.11-.41-4.29.85-8.31-.48-12.48-.32-5.02.2-10.11-.79-15.08-.35-7.63.67-15.22,2-22.79,3.3-4.38.75-8.66,2.71-13.01,2.81-4.74.11-5.95,3.66-8.62,5.81.13.23.27.45.4.68,1.94,0,3.88-.07,5.81.01,3.91.17,7.81.45,11.72.64,2.33.11,4.67.08,7,.23,3.92.26,7.84.91,11.75.88,18.42-.17,36.84-.58,55.26-.78,15.3-.16,30.6-.14,45.91-.21,8.7-.04,17.4-.2,26.09-.12,7.69.07,15.37.36,23.06.59,8.21.24,16.42.41,24.62.83,4.86.25,9.69,1.08,14.55,1.39,6.02.38,12.06-.15,18.1.99,3.68.69,7.59.13,11.4.13,0-.36,0-.73.01-1.09-2.1,0-4.23.18-6.31-.04-3.76-.39-7.52-1.55-11.24-1.41-3.98.15-6.27-2.13-9.08-4.14,2.68-1.44,9.5-.23,10.39,1.43,1.2-.55,2.32-1.36,3.54-1.55,1.29-.21,2.69.06,4,.33,1.09.23,3.36-.94,2.72,1.93-.01.07,1.61.75,2.44.68,1.04-.09,2.04-.65,3.06-1.01.59.56,1.2,1.08,1.74,1.67.5.55.9,1.2,1.39,1.75.62.7,1.2,1.76,1.97,1.94,1.47.35,3.13.48,4.59.17,1.69-.37,3.57-1.75,3.31-3.37-.28-1.69.34-2.01,1.41-2.14,3.08-.39,6.17-.67,9.27-.88.67-.05,1.59.13,2.03.57Z"/>
      <path class="cls-1" d="m325.94,14.89c-.26.11-.95-.58-1.3-1.01-.21-.27-.08-1.07-.21-1.09-1.71-.33-3.45-.56-5.36-.84.84,1.43-.14,3.18-1.69,3.14-2.26-.07-4.56-.29-6.75-.82-.81-.2-1.35-1.47-2.03-2.28-.58-.2-1.42-.38-2.14-.76-3.8-1.99-5.48-1.54-5.86,2.3-3.88-1.21-7.63-2.37-11.37-3.55-.12-.04-.14-.35-.27-.44-.36-.26-1.01-.74-1.09-.66-.53.51-.98,1.12-1.39,1.75-.36.55-.63,1.16-.8,1.49,4.97,2.84,10.65,2.16,16.13,2.73-.61,1.3-.99,2.12-1.38,2.94,1.01-.12,1.82-.45,2.04-1,1.09-2.78,3.07-1.88,4.98-1.33.4.11.83.62,1.13.54,4.16-1.14,8.1.34,12.12.87,1.49.2,3.15-.56,4.58-.21,2.57.62,5.06,1.13,7.73.35-2.71.45-4.07-3.31-7.06-2.09Z"/>
      <path class="cls-1" d="m269.75,16.89c2.21.82,4.42,1.64,6.63,2.47.07-.2.13-.39.2-.59-.19-.17-.38-.34-.58-.51,3.16-.24,6.33-.48,9.49-.73.05-.09.09-.19.14-.28-5.23-.38-10.46-.76-15.7-1.14-.06.26-.12.52-.18.78Z"/>
      <path class="cls-1" d="m280.17,15.39c.34.25.69.72,1.01.7,1.55-.08,3.1-.3,4.65-.47.03-.26.05-.52.08-.78-1.62-.21-3.23-.48-4.85-.58-.27-.02-.59.74-.89,1.13Z"/>
    </g>
  </g>
</svg>